<svg width="1108" height="894" viewBox="0 0 1108 894" fill="none" xmlns="http://www.w3.org/2000/svg">
<g filter="url(#filter0_f_3701_3)">
<rect x="100.011" y="100" width="693.304" height="694" rx="346.652" fill="url(#paint0_radial_3701_3)" fill-opacity="0.5"/>
</g>
<g filter="url(#filter1_f_3701_3)">
<rect x="634.475" y="196" width="295.703" height="296" rx="147.852" fill="url(#paint1_radial_3701_3)"/>
</g>
<g filter="url(#filter2_f_3701_3)">
<rect x="831.278" y="638" width="122.877" height="123" rx="61.4383" fill="url(#paint2_radial_3701_3)"/>
</g>
<path id="star1" opacity="0.3" d="M204.2 348C204.2 348 213.386 387.582 182.928 431.775C182.928 431.775 232.688 430.252 256.619 463C256.619 463 248.642 415.401 282.828 379.226C282.828 379.226 236.107 387.603 204.2 348Z" fill="#E11D2E"/>

<path opacity="0.23" d="M1008.11 436.415C1008.11 436.415 972.062 470.154 907.073 464.918C907.073 464.918 938.919 516.429 919.024 561.551C919.024 561.551 964.234 524.214 1023.06 538.252C1023.06 538.252 985.85 494.109 1008.11 436.415Z" fill="#0096F2"/>
<path opacity="0.23" d="M807.568 203C807.568 203 813.723 229.159 793.316 258.364C793.316 258.364 826.655 257.358 842.689 279C842.689 279 837.344 247.543 860.249 223.636C860.249 223.636 828.945 229.172 807.568 203Z" fill="#FF850B"/>
<g opacity="0.4" filter="url(#filter3_f_3701_3)">
<path d="M709.029 188C709.029 188 745.971 347.179 623.486 524.9C623.486 524.9 823.594 518.775 919.831 650.47C919.831 650.47 887.751 459.05 1025.23 313.574C1025.23 313.574 837.342 347.262 709.029 188Z" fill="#2424EB"/>
</g>
<g opacity="0.1">
<path d="M890.302 390.359C890.302 390.359 892.37 399.25 885.514 409.176C885.514 409.176 896.714 408.834 902.101 416.189C902.101 416.189 900.306 405.498 908.001 397.372C908.001 397.372 897.484 399.254 890.302 390.359Z" fill="white"/>
</g>
<path d="M322.805 527.569C322.805 527.569 325.743 540.205 316 554.312C316 554.312 331.918 553.826 339.574 564.28C339.574 564.28 337.022 549.085 347.958 537.537C347.958 537.537 333.012 540.211 322.805 527.569Z" fill="white"/>
<g opacity="0.6">
<path d="M856.753 526.535C856.753 526.535 858.821 535.426 851.965 545.352C851.965 545.352 863.166 545.01 868.552 552.365C868.552 552.365 866.757 541.674 874.452 533.548C874.452 533.548 863.935 535.43 856.753 526.535Z" fill="white"/>
</g>
<g opacity="0.300003">
<g opacity="0.300003">
<path opacity="0.300003" d="M873.978 708.308C873.978 717.546 757.3 725.034 613.371 725.034C469.442 725.034 352.764 717.546 352.764 708.308C352.764 699.07 469.442 691.582 613.371 691.582C757.3 691.582 873.978 699.07 873.978 708.308Z" fill="#000072"/>
</g>
</g>
<path d="M832.738 687.386C822.395 699.381 807.223 706.129 791.379 706.129H435.361C419.518 706.129 404.346 699.381 394.003 687.386C388.29 680.754 384.065 673.368 381.225 665.81C381.214 665.81 381.214 665.81 381.214 665.8C372.276 642.085 376.83 616.636 391.088 607.482C415.028 592.091 433.489 610.899 433.489 610.899C435.532 606.098 438.298 601.937 441.394 598.371C453.056 584.896 469.399 579.765 469.399 579.765C460.515 528.792 480.348 482.608 480.348 482.608C480.348 482.608 529.218 519.553 613.37 519.553C697.523 519.553 746.393 482.608 746.393 482.608C746.393 482.608 766.226 528.792 757.342 579.765C757.342 579.765 783.506 587.983 793.252 610.899C793.252 610.899 811.713 592.091 835.653 607.482C854.454 619.563 856.38 659.978 832.738 687.386Z" fill="#B11313"/>
<g opacity="0.300003">
<g opacity="0.300003">
<path opacity="0.300003" d="M447.682 657.893C450.981 625.95 433.488 612.166 433.488 612.166C435.531 607.366 438.298 603.204 441.394 599.639C468.526 632.102 447.682 657.893 447.682 657.893Z" fill="#000072"/>
</g>
</g>
<g opacity="0.300003">
<g opacity="0.300003">
<path opacity="0.300003" d="M779.154 657.893C775.856 625.95 793.348 612.166 793.348 612.166C791.305 607.366 788.539 603.204 785.443 599.639C758.31 632.102 779.154 657.893 779.154 657.893Z" fill="#000072"/>
</g>
</g>
<g opacity="0.300003">
<g opacity="0.300003">
<path opacity="0.300003" d="M781.924 684.706C779.389 684.074 776.776 683.857 774.179 684.143C770.479 684.549 764.113 685.179 754.776 685.879C740.722 686.933 728.449 676.369 727.489 662.304C727.077 656.261 727.981 651.57 728.309 650.118C724.639 665.812 717.862 680.27 713.73 688.2C692.755 689.074 666.188 689.786 633.336 689.995C631.564 626.494 668.44 566.951 668.44 566.951C611.938 612.166 558.391 566.951 558.391 566.951C595.674 633.15 593.733 687.237 593.733 687.237L600.012 690.03C564.136 689.879 535.444 689.132 513.1 688.2C508.968 680.271 502.191 665.812 498.521 650.118C498.862 651.628 499.826 656.643 499.284 663.038C498.118 676.802 485.834 686.913 472.064 685.88C462.721 685.18 456.353 684.549 452.651 684.143C450.054 683.857 447.441 684.074 444.906 684.706C404.397 694.795 381.949 667.966 381.227 667.077C384.067 674.635 388.292 682.021 394.005 688.653C404.348 700.648 419.52 707.396 435.363 707.396H613.415H791.467C807.31 707.396 822.483 700.648 832.825 688.653C838.538 682.021 842.763 674.635 845.603 667.077C844.881 667.966 822.433 694.795 781.924 684.706Z" fill="#000072"/>
</g>
</g>
<g opacity="0.300003">
<g opacity="0.300003">
<path opacity="0.300003" d="M498.524 650.119C498.454 649.813 498.41 649.646 498.41 649.646C498.447 649.804 498.487 649.961 498.524 650.119Z" fill="#000072"/>
</g>
</g>
<g opacity="0.300003">
<g opacity="0.300003">
<path opacity="0.300003" d="M728.311 650.119C728.348 649.961 728.388 649.804 728.424 649.646C728.424 649.646 728.38 649.813 728.311 650.119Z" fill="#000072"/>
</g>
</g>
<path d="M613.336 703.706H791.389C806.325 703.706 820.382 697.341 829.956 686.243C842.324 671.905 848.423 652.051 845.874 634.427C844.38 624.109 839.933 615.88 833.671 611.854C812.498 598.238 796.557 614.077 795.889 614.757C795.027 615.636 793.784 616.029 792.572 615.797C791.361 615.569 790.345 614.749 789.863 613.617C780.886 592.504 756.488 584.636 756.243 584.559C754.477 584.005 753.395 582.228 753.713 580.404C760.779 539.896 749.108 501.996 744.639 489.578C731.259 498.329 685.217 524.514 613.379 524.514C541.541 524.514 495.498 498.329 482.119 489.578C477.65 501.996 465.978 539.896 473.044 580.404C473.362 582.228 472.28 584.005 470.514 584.559C470.273 584.636 445.836 592.588 436.894 613.617C436.412 614.749 435.396 615.569 434.186 615.797C432.976 616.028 431.73 615.636 430.868 614.757C430.202 614.088 414.124 598.324 393.086 611.854C386.825 615.88 382.377 624.109 380.884 634.427C378.335 652.051 384.433 671.906 396.801 686.243C406.375 697.341 420.433 703.706 435.369 703.706H613.336ZM791.389 711.086H435.369C418.286 711.086 402.193 703.788 391.216 691.064C377.493 675.156 370.736 653.049 373.583 633.37C375.408 620.752 380.918 610.906 389.097 605.646C408.563 593.13 424.987 601.304 432.204 606.395C441.359 589.627 458.345 581.403 465.277 578.626C457.557 528.409 476.154 484.307 476.966 482.418C477.413 481.376 478.315 480.598 479.41 480.308C480.508 480.017 481.675 480.247 482.579 480.931C483.057 481.29 531.586 517.134 613.379 517.134C695.171 517.134 743.701 481.29 744.181 480.929C745.086 480.247 746.256 480.018 747.349 480.309C748.444 480.6 749.345 481.377 749.792 482.418C750.603 484.307 769.2 528.409 761.48 578.626C768.413 581.403 785.399 589.627 794.553 606.395C801.769 601.304 818.193 593.126 837.66 605.646C845.839 610.906 851.349 620.751 853.175 633.37C856.022 653.048 849.265 675.156 835.541 691.064C824.565 703.788 808.471 711.086 791.389 711.086Z" fill="#000072"/>
<path d="M435.635 609.162C436.039 609.438 436.228 609.59 436.507 609.796C436.771 609.992 436.984 610.179 437.226 610.373C437.705 610.76 438.11 611.168 438.544 611.571C438.988 611.966 439.354 612.403 439.753 612.825C440.155 613.245 440.532 613.678 440.886 614.125C442.356 615.888 443.591 617.787 444.693 619.748C446.902 623.671 448.369 627.9 449.389 632.158C450.383 636.434 450.751 640.775 450.751 645.062C450.759 647.204 450.52 649.34 450.374 651.451C450.056 653.56 449.709 655.651 449.268 657.713C449.183 658.106 448.796 658.357 448.403 658.273C448.104 658.209 447.888 657.97 447.838 657.687L447.83 657.635C447.468 655.564 447.243 653.522 446.971 651.499L446.443 648.488C446.249 647.492 446.177 646.487 445.912 645.509C445.417 643.554 445.151 641.577 444.526 639.688C444.254 638.737 444.04 637.773 443.743 636.838L442.792 634.061C441.48 630.396 439.877 626.892 437.945 623.652C437.443 622.858 436.972 622.037 436.425 621.285L435.635 620.13L434.788 619.034C434.251 618.278 433.628 617.613 433.045 616.931C432.744 616.607 432.446 616.256 432.143 615.967C431.997 615.819 431.841 615.644 431.703 615.515C431.581 615.396 431.38 615.208 431.366 615.181L430.57 613.581C429.715 611.864 430.414 609.778 432.131 608.923C433.294 608.344 434.63 608.481 435.635 609.162Z" fill="#000072"/>
<path d="M795.305 615.181C795.291 615.208 795.09 615.396 794.968 615.515C794.83 615.644 794.674 615.819 794.529 615.968C794.225 616.256 793.927 616.607 793.626 616.931C793.043 617.614 792.42 618.278 791.883 619.034L791.036 620.131L790.246 621.285C789.699 622.037 789.229 622.859 788.726 623.653C786.794 626.892 785.191 630.397 783.879 634.061L782.928 636.838C782.631 637.773 782.418 638.737 782.145 639.688C781.52 641.577 781.255 643.554 780.759 645.51C780.494 646.487 780.422 647.492 780.229 648.488L779.7 651.499C779.429 653.523 779.203 655.564 778.842 657.635L778.833 657.686C778.764 658.082 778.387 658.347 777.991 658.278C777.69 658.226 777.464 657.995 777.404 657.713C776.962 655.651 776.615 653.56 776.297 651.451C776.151 649.34 775.912 647.204 775.92 645.062C775.921 640.775 776.288 636.434 777.282 632.158C778.303 627.9 779.77 623.671 781.978 619.748C783.08 617.787 784.316 615.888 785.786 614.125C786.139 613.679 786.516 613.245 786.918 612.825C787.317 612.403 787.683 611.966 788.127 611.571C788.561 611.168 788.966 610.761 789.445 610.373C789.687 610.179 789.9 609.992 790.165 609.796C790.443 609.59 790.632 609.438 791.037 609.162C792.622 608.081 794.782 608.491 795.862 610.077C796.594 611.151 796.642 612.49 796.104 613.577L795.305 615.181Z" fill="#000072"/>
<path d="M473.072 580.6L473.373 583.549L473.748 586.846C473.881 587.97 474.057 589.097 474.154 590.281C474.262 591.461 474.326 592.684 474.266 594.005L474.266 594.011C474.257 594.218 474.081 594.379 473.873 594.37C473.798 594.366 473.73 594.342 473.673 594.301C472.59 593.538 471.657 592.662 470.85 591.708C470.024 590.76 469.347 589.726 468.688 588.666C468.043 587.599 467.456 586.49 466.945 585.328C466.704 584.742 466.455 584.152 466.262 583.531C466.157 583.224 466.063 582.907 465.979 582.582C465.888 582.231 465.826 581.974 465.747 581.476C465.427 579.463 466.8 577.57 468.813 577.251C470.826 576.93 472.718 578.303 473.037 580.317C473.048 580.382 473.056 580.446 473.063 580.51L473.072 580.6Z" fill="#000072"/>
<path d="M761.096 581.476C761.017 581.974 760.956 582.231 760.865 582.582C760.781 582.907 760.686 583.224 760.582 583.531C760.389 584.153 760.139 584.742 759.899 585.328C759.388 586.49 758.801 587.599 758.156 588.666C757.496 589.726 756.82 590.76 755.994 591.708C755.187 592.662 754.254 593.538 753.17 594.301C753.001 594.421 752.766 594.38 752.646 594.21C752.603 594.149 752.581 594.08 752.578 594.01L752.578 594.005C752.518 592.684 752.582 591.461 752.69 590.281C752.787 589.097 752.963 587.97 753.095 586.846L753.471 583.549L753.772 580.6L753.779 580.522C753.986 578.494 755.798 577.017 757.826 577.224C759.854 577.43 761.33 579.243 761.123 581.271C761.116 581.336 761.106 581.413 761.096 581.476Z" fill="#000072"/>
<path d="M490.97 617.174C490.97 617.174 474.085 604.074 469.411 581.038C469.411 581.038 459.696 576.127 452.982 589.416C452.982 589.416 460.727 629.985 498.414 649.646C498.414 649.646 492.969 628.76 490.97 617.174Z" fill="#0096F2"/>
<path d="M456.882 589.944C458.403 596.139 466.594 624.428 492.662 641.943C491.012 635.248 488.826 625.996 487.573 619.147C483.662 615.758 470.935 603.493 466.259 583.884C464.136 583.518 460.313 583.945 456.882 589.944ZM498.411 653.335C497.829 653.335 497.244 653.197 496.706 652.918C457.883 632.664 449.687 591.836 449.356 590.108C449.204 589.308 449.32 588.479 449.688 587.752C453.882 579.451 459.365 577.098 463.227 576.586C467.5 576.015 470.719 577.566 471.072 577.745C472.079 578.255 472.799 579.197 473.023 580.304C477.351 601.637 493.075 614.138 493.233 614.262C493.955 614.826 494.447 615.643 494.602 616.547C496.551 627.845 501.927 648.507 501.981 648.714C502.349 650.126 501.85 651.622 500.71 652.532C500.043 653.063 499.23 653.335 498.411 653.335Z" fill="#000072"/>
<path d="M735.874 617.174C735.874 617.174 752.759 604.074 757.433 581.038C757.433 581.038 767.148 576.127 773.862 589.416C773.862 589.416 766.117 629.985 728.43 649.646C728.43 649.646 733.876 628.76 735.874 617.174Z" fill="#0096F2"/>
<path d="M739.266 619.147C738.012 625.997 735.826 635.248 734.176 641.944C760.243 624.429 768.434 596.144 769.957 589.943C767.879 586.301 765.421 584.27 762.642 583.902C761.862 583.798 761.148 583.842 760.567 583.933C755.882 603.515 743.173 615.76 739.266 619.147ZM728.427 653.335C727.609 653.335 726.796 653.063 726.129 652.532C724.988 651.622 724.49 650.125 724.858 648.714C724.912 648.507 730.287 627.845 732.236 616.546C732.392 615.64 732.88 614.826 733.605 614.262C733.763 614.138 749.487 601.637 753.816 580.304C754.04 579.197 754.759 578.255 755.767 577.745C756.119 577.567 759.337 576.015 763.611 576.586C767.473 577.098 772.957 579.451 777.15 587.752C777.518 588.48 777.635 589.308 777.482 590.108C777.152 591.836 768.956 632.664 730.133 652.918C729.595 653.197 729.01 653.335 728.427 653.335Z" fill="#000072"/>
<path d="M541.842 522.918C541.842 522.918 548.182 540.896 546.357 567.125L567.246 585.307C567.246 585.307 572.706 553.618 563.408 527.3L541.842 522.918Z" fill="#0096F2"/>
<path d="M550.157 565.538L564.441 577.97C565.408 567.858 566.233 548.032 560.595 530.492L547.029 527.735C548.782 535.033 551.122 548.459 550.157 565.538ZM567.251 588.997C566.374 588.997 565.511 588.684 564.829 588.09L543.94 569.908C543.068 569.149 542.602 568.023 542.682 566.869C544.425 541.804 538.426 524.315 538.366 524.141C537.927 522.888 538.194 521.494 539.067 520.494C539.939 519.495 541.282 519.043 542.58 519.301L564.145 523.682C565.416 523.94 566.457 524.847 566.889 526.069C576.399 552.986 571.114 584.601 570.885 585.933C570.659 587.246 569.742 588.336 568.487 588.782C568.084 588.926 567.666 588.997 567.251 588.997Z" fill="#000072"/>
<path d="M684.997 522.918C684.997 522.918 678.657 540.896 680.481 567.125L659.592 585.307C659.592 585.307 654.133 553.618 663.431 527.3L684.997 522.918Z" fill="#0096F2"/>
<path d="M666.242 530.492C660.594 548.064 661.422 567.873 662.393 577.974L676.68 565.538C675.716 548.459 678.056 535.034 679.809 527.736L666.242 530.492ZM659.587 588.997C659.172 588.997 658.754 588.926 658.351 588.783C657.095 588.336 656.179 587.247 655.953 585.934C655.723 584.601 650.439 552.987 659.949 526.069C660.381 524.847 661.422 523.941 662.692 523.683L684.258 519.302C685.56 519.033 686.903 519.494 687.775 520.496C688.646 521.498 688.912 522.891 688.471 524.143C688.375 524.42 682.419 541.88 684.156 566.87C684.236 568.023 683.77 569.149 682.897 569.909L662.009 588.091C661.327 588.684 660.464 588.997 659.587 588.997Z" fill="#000072"/>
<path d="M592.587 695.87C587.331 721.692 557.368 733.506 536.311 717.679C519.83 705.3 501.731 676.987 490.548 614.902C489.484 608.952 488.473 602.683 487.537 596.094L494.655 589.346L541.844 544.578C541.844 544.578 588.331 616.573 593.481 671.761V671.772C594.289 680.319 594.098 688.462 592.587 695.87Z" fill="#B11313"/>
<g opacity="0.300003">
<g opacity="0.300003">
<path opacity="0.300003" d="M592.588 695.87C587.332 721.692 557.369 733.506 536.312 717.679C519.831 705.3 501.732 676.987 490.549 614.902C474.812 605.418 469.407 581.033 469.407 581.033C462.619 548.654 470.45 518.809 470.45 518.809C468.96 558.22 484.597 577.02 491.046 583.055C492.844 584.736 494.1 586.905 494.647 589.305C494.65 589.319 494.653 589.332 494.656 589.346C506.179 640.351 525.481 702.49 553.485 706.939C580.522 711.229 592.173 675.998 593.482 671.772C594.29 680.319 594.099 688.462 592.588 695.87Z" fill="#000072"/>
</g>
</g>
<path d="M545.885 541.135C551.258 546.989 555.507 553.519 559.359 560.265C561.271 563.646 563.014 567.114 564.747 570.588C566.48 574.062 568.177 577.555 569.83 581.07C576.453 595.122 582.483 609.491 587.492 624.298C592.505 639.087 596.542 654.367 598.014 670.276C598.722 678.218 598.766 686.345 597.417 694.48C597.124 696.477 596.698 698.621 596.041 700.684C595.445 702.764 594.6 704.769 593.685 706.735C591.775 710.634 589.231 714.23 586.196 717.34C580.064 723.499 571.962 727.652 563.36 728.873C559.07 729.544 554.664 729.398 550.389 728.64C546.116 727.828 541.99 726.293 538.219 724.18C536.374 723.089 534.516 721.888 532.913 720.566L530.508 718.593C529.696 717.945 528.999 717.192 528.241 716.495C527.509 715.776 526.729 715.094 526.039 714.341L523.982 712.075C522.562 710.597 521.384 708.955 520.11 707.379C515.186 700.955 511.258 693.97 507.811 686.848C504.307 679.732 501.628 672.331 499.033 664.934C496.626 657.48 494.432 649.975 492.628 642.394C491.737 638.603 490.779 634.824 490.051 631.004C489.302 627.189 488.404 623.399 487.859 619.552C486.653 611.876 486.087 604.095 486.75 596.203C486.788 595.756 487.18 595.425 487.626 595.463C487.937 595.489 488.192 595.688 488.305 595.957L488.315 595.98C489.848 599.648 491.008 603.348 492.009 607.069C492.994 610.792 494.015 614.492 494.789 618.237C495.529 621.991 496.396 625.706 497.212 629.436C497.987 633.178 498.986 636.855 499.918 640.55C501.803 647.935 504.058 655.196 506.503 662.37C509.125 669.463 511.819 676.545 515.245 683.21C518.6 689.9 522.427 696.321 526.925 702.104C528.086 703.51 529.164 705.006 530.434 706.293L532.275 708.293C532.89 708.957 533.575 709.534 534.22 710.161C534.885 710.76 535.502 711.428 536.205 711.972L538.282 713.648C539.658 714.77 541.064 715.638 542.532 716.506C545.497 718.128 548.692 719.285 551.994 719.888C555.299 720.437 558.7 720.54 562.022 719.984C568.69 718.998 574.962 715.681 579.674 710.908C582.022 708.508 583.992 705.742 585.481 702.727C586.187 701.201 586.859 699.651 587.323 698.023C587.843 696.415 588.176 694.769 588.444 692.956C589.64 685.88 589.652 678.468 589.007 671.077C588.354 663.676 587.04 656.266 585.339 648.922C583.649 641.572 581.536 634.283 579.184 627.061C574.471 612.613 568.711 598.446 562.343 584.553C560.753 581.077 559.12 577.621 557.451 574.181C555.79 570.736 554.041 567.336 552.421 563.868C549.15 556.948 546.068 549.916 543.637 542.48L543.629 542.456C543.399 541.753 543.782 540.998 544.484 540.768C544.998 540.599 545.542 540.761 545.885 541.135Z" fill="#000072"/>
<path d="M500.871 661.579C499.878 661.579 498.887 661.181 498.16 660.393C496.779 658.896 496.871 656.565 498.366 655.182C499.734 653.916 532.452 624.143 582.544 620.397C584.569 620.233 586.345 621.769 586.497 623.801C586.649 625.833 585.125 627.604 583.093 627.756C535.659 631.303 503.689 660.31 503.372 660.602C502.663 661.256 501.765 661.579 500.871 661.579Z" fill="#000072"/>
<path d="M634.255 695.87C639.512 721.692 669.474 733.507 690.531 717.679C707.013 705.301 725.111 676.988 736.294 614.902C737.358 608.952 738.369 602.683 739.305 596.094L732.187 589.346L684.998 544.578C684.998 544.578 638.512 616.573 633.362 671.762V671.772C632.553 680.319 632.745 688.462 634.255 695.87Z" fill="#B11313"/>
<g opacity="0.300003">
<g opacity="0.300003">
<path opacity="0.300003" d="M634.254 695.87C639.51 721.692 669.472 733.506 690.529 717.679C707.011 705.3 725.11 676.987 736.292 614.902C752.029 605.418 757.434 581.033 757.434 581.033C764.223 548.654 756.391 518.809 756.391 518.809C757.882 558.22 742.245 577.02 735.795 583.055C733.998 584.736 732.742 586.905 732.195 589.305C732.191 589.319 732.188 589.332 732.185 589.346C720.662 640.351 701.361 702.49 673.356 706.939C646.319 711.229 634.668 675.998 633.36 671.772C632.551 680.319 632.743 688.462 634.254 695.87Z" fill="#000072"/>
</g>
</g>
<path d="M683.202 542.48C680.771 549.915 677.689 556.948 674.418 563.868C672.797 567.336 671.049 570.736 669.388 574.181C667.719 577.621 666.085 581.077 664.496 584.553C658.128 598.446 652.368 612.613 647.654 627.061C645.303 634.283 643.19 641.572 641.5 648.922C639.799 656.266 638.485 663.675 637.831 671.077C637.187 678.468 637.199 685.88 638.395 692.956C638.663 694.769 638.995 696.415 639.516 698.023C639.979 699.651 640.652 701.201 641.357 702.727C642.847 705.742 644.817 708.507 647.165 710.908C651.876 715.681 658.149 718.998 664.816 719.984C668.139 720.54 671.54 720.437 674.845 719.888C678.147 719.285 681.341 718.128 684.306 716.505C685.775 715.638 687.181 714.77 688.557 713.648L690.634 711.972C691.337 711.428 691.953 710.759 692.619 710.161C693.264 709.534 693.949 708.957 694.564 708.293L696.404 706.293C697.675 705.006 698.752 703.51 699.914 702.103C704.412 696.321 708.239 689.9 711.594 683.21C715.02 676.545 717.714 669.463 720.336 662.37C722.78 655.196 725.036 647.935 726.921 640.55C727.853 636.855 728.852 633.178 729.627 629.436C730.443 625.706 731.31 621.991 732.05 618.237C732.824 614.492 733.845 610.792 734.83 607.069C735.831 603.348 736.991 599.647 738.524 595.98L738.534 595.957C738.706 595.545 739.181 595.35 739.594 595.522C739.882 595.643 740.063 595.912 740.089 596.203C740.752 604.095 740.186 611.876 738.979 619.552C738.435 623.399 737.537 627.189 736.788 631.004C736.06 634.824 735.102 638.603 734.211 642.395C732.407 649.975 730.213 657.48 727.806 664.934C725.211 672.331 722.532 679.732 719.028 686.848C715.58 693.97 711.653 700.955 706.729 707.379C705.455 708.955 704.277 710.597 702.857 712.075L700.8 714.341C700.11 715.094 699.33 715.776 698.598 716.495C697.839 717.192 697.142 717.945 696.33 718.593L693.926 720.566C692.323 721.888 690.465 723.089 688.62 724.18C684.848 726.293 680.722 727.828 676.45 728.639C672.175 729.398 667.769 729.544 663.479 728.873C654.877 727.653 646.775 723.499 640.643 717.34C637.608 714.23 635.064 710.634 633.154 706.735C632.239 704.769 631.394 702.764 630.798 700.684C630.141 698.621 629.714 696.476 629.422 694.48C628.073 686.345 628.117 678.218 628.825 670.276C630.297 654.367 634.334 639.086 639.347 624.298C644.356 609.492 650.386 595.122 657.008 581.069C658.662 577.555 660.359 574.062 662.091 570.588C663.824 567.114 665.568 563.645 667.48 560.265C671.332 553.519 675.58 546.989 680.953 541.135C681.453 540.59 682.299 540.554 682.843 541.054C683.242 541.42 683.368 541.972 683.211 542.455L683.202 542.48Z" fill="#000072"/>
<path d="M725.969 661.582C725.074 661.582 724.177 661.258 723.468 660.602C723.15 660.31 691.18 631.304 643.746 627.756C641.714 627.604 640.191 625.833 640.342 623.801C640.494 621.769 642.267 620.235 644.295 620.397C694.388 624.143 727.105 653.917 728.474 655.183C729.969 656.566 730.061 658.901 728.678 660.397C727.951 661.183 726.962 661.582 725.969 661.582Z" fill="#000072"/>
<path d="M613.473 508.935C709.94 508.935 748.243 466.779 748.243 466.779C748.243 466.779 749.851 470.409 750.633 475.568C751.928 484.11 748.302 492.679 741.397 497.868C726.218 509.275 687.568 531.012 613.423 531.012C539.278 531.012 500.628 509.275 485.449 497.868C478.544 492.679 474.917 484.11 476.213 475.568C476.995 470.409 478.602 466.779 478.602 466.779C478.602 466.779 516.905 508.935 613.373 508.935" fill="#751313"/>
<g opacity="0.300003">
<g opacity="0.300003">
<path opacity="0.300003" d="M750.284 473.59C749.043 478.947 745.935 483.816 741.401 487.224C726.222 498.631 687.571 520.367 613.427 520.367C539.282 520.367 500.631 498.631 485.453 487.224C480.918 483.816 477.81 478.947 476.569 473.59C476.441 474.219 476.321 474.878 476.217 475.567C474.921 484.109 478.547 492.678 485.453 497.868C500.631 509.275 539.282 531.011 613.427 531.011C687.571 531.011 726.222 509.275 741.401 497.868C748.306 492.678 751.932 484.109 750.637 475.567C750.532 474.878 750.412 474.219 750.284 473.59Z" fill="#000072"/>
</g>
</g>
<path d="M613.418 534.702C539.373 534.702 500.068 513.473 483.229 500.818C475.156 494.75 471.068 484.863 472.562 475.015C473.408 469.43 475.151 465.451 475.225 465.285C475.73 464.144 476.777 463.335 478.008 463.137C479.238 462.935 480.488 463.374 481.327 464.297C481.697 464.701 519.935 505.245 613.369 505.245V512.625C533.568 512.625 493.088 484.466 480.352 473.5C480.169 474.309 479.997 475.188 479.855 476.121C478.769 483.281 481.76 490.484 487.66 494.919C503.763 507.02 541.515 527.322 613.418 527.322C685.322 527.322 723.074 507.02 739.177 494.919C745.077 490.484 748.067 483.282 746.982 476.121C746.84 475.188 746.668 474.309 746.484 473.5C733.748 484.466 693.269 512.625 613.468 512.625V505.245C707.219 505.245 745.137 464.706 745.51 464.297C746.349 463.374 747.598 462.937 748.828 463.137C750.059 463.335 751.106 464.144 751.612 465.285C751.686 465.451 753.429 469.43 754.275 475.015C755.769 484.863 751.681 494.751 743.608 500.818C726.769 513.473 687.464 534.702 613.418 534.702Z" fill="#000072"/>
<g opacity="0.3">
<path d="M321.813 230.556C321.813 230.556 323.881 239.447 317.025 249.373C317.025 249.373 328.226 249.031 333.613 256.387C333.613 256.387 331.817 245.695 339.512 237.57C339.512 237.57 328.995 239.452 321.813 230.556Z" fill="white"/>
</g>
<path d="M478.68 497.977L538.159 633.424" stroke="#000072" stroke-width="3" stroke-miterlimit="10"/>
<path d="M686.098 633.423L746.839 497.977" stroke="#000072" stroke-width="3" stroke-miterlimit="10"/>
<path fill-rule="evenodd" clip-rule="evenodd" d="M609.05 553.289C609.025 553.615 608.828 553.908 608.696 554.229C608.568 554.539 608.451 554.872 608.341 555.198C608.054 556.048 607.785 556.886 607.809 557.987C608.79 558.116 610.027 558.02 610.912 557.896C611.395 558.111 611.706 558.444 612.152 558.684C612.068 558.273 612.471 558.195 612.817 558.078C612.664 558.256 612.425 558.375 612.507 558.714C612.709 558.806 612.741 558.562 612.906 558.532C613.134 558.71 613.423 558.7 613.659 558.532C613.829 558.558 613.783 558.731 613.97 558.745C614.233 558.509 613.857 558.253 613.748 558.078C614.077 558.196 614.451 558.284 614.413 558.654C614.771 558.504 615.207 558.146 615.565 557.896C616.488 558.029 617.668 558.091 618.756 558.017C618.719 556.173 618.065 554.752 617.426 553.319C617.603 553.304 617.602 553.463 617.648 553.531C618.307 554.507 618.894 555.621 619.376 556.805C619.446 556.977 619.564 557.211 619.642 557.441C619.71 557.643 619.854 557.995 619.819 558.108C619.743 558.357 619.143 558.44 619.022 558.654C618.653 558.356 617.59 558.441 616.584 558.411C616.299 558.402 615.917 558.347 615.742 558.381C615.356 558.456 615.187 558.842 614.989 559.048C615.535 559.073 615.966 558.711 616.451 558.684C616.759 558.666 617.209 558.825 617.603 558.896C618.746 559.103 620.021 559.278 621.061 559.502C621.123 557.065 620.208 555.034 618.978 553.38C620.2 554.534 621.023 555.884 621.637 557.472C621.743 557.746 621.833 558.008 621.903 558.29C622 558.687 622.003 559.177 622.301 559.472C621.934 559.746 621.492 559.969 621.105 560.23C620.016 559.785 617.912 559.145 616.141 559.26C615.717 559.287 615.342 559.432 615.033 559.623C615.574 559.771 615.949 559.785 616.673 559.775C616.853 559.772 617.113 559.721 617.249 559.745C617.403 559.771 617.65 559.989 617.869 560.139C619.149 561.014 620.294 561.655 621.814 562.351C622.288 562.569 622.556 562.79 623.099 562.503C623.189 565.379 622.072 567.502 620.706 569.443C620.547 569.669 620.446 569.932 620.174 570.11C621.201 568.453 621.991 566.48 621.991 564.17C621.991 563.927 622.059 563.626 621.991 563.412C621.895 563.109 621.198 562.787 620.794 562.533C619.649 561.81 618.738 561.303 617.471 560.624C617.222 560.491 617.011 560.311 616.806 560.26C616.59 560.206 616.249 560.195 616.008 560.169C615.706 560.136 615.416 560.128 615.166 560.108C615.656 560.468 616.433 560.915 617.116 561.26C617.241 561.337 617.371 561.233 617.515 561.23C617.677 564.608 617.311 567.917 615.92 570.383C615.587 570.971 615.22 571.549 614.634 571.989C616.524 569.656 616.666 565.65 616.274 562.139C616.676 561.901 616.501 561.703 616.141 561.412C615.747 561.093 615.048 560.628 614.59 560.472C614.558 560.63 614.637 560.785 614.723 560.927C614.809 561.069 615.001 561.193 615.033 561.321C615.1 561.592 614.939 562.187 614.856 562.503C614.582 563.548 614.004 564.696 613.482 565.473C613.298 565.457 613.427 565.228 613.305 565.17C613.108 565.177 613.227 565.4 613.127 565.473C612.517 564.761 611.996 563.583 611.709 562.503C611.607 562.117 611.447 561.652 611.532 561.321C611.599 561.057 612.014 560.818 611.975 560.502C611.57 560.566 611.191 560.842 610.867 561.078C610.544 561.314 610.209 561.567 609.981 561.836C610.008 561.969 610.197 561.991 610.247 562.109C609.956 565.662 609.966 569.66 611.931 571.959C611.724 571.94 611.627 571.76 611.532 571.656C609.702 569.655 609.211 566.569 609.006 563.382C608.961 562.677 608.914 561.988 609.05 561.291C609.088 561.144 609.316 561.361 609.449 561.26C610.148 560.9 610.779 560.492 611.443 560.108C610.865 560.169 610.235 560.15 609.715 560.29C609.263 560.412 608.769 560.749 608.341 560.987C607.04 561.712 605.67 562.499 604.574 563.321C604.35 566.026 605.256 568.205 606.347 570.11C604.773 568.013 603.314 565.68 603.466 562.503C604.066 562.892 604.978 562.259 605.46 562.018C606.802 561.347 608.235 560.481 609.272 559.745C610.022 559.82 610.904 559.759 611.532 559.654C610.749 558.971 608.742 559.314 607.543 559.563C606.739 559.73 605.989 559.97 605.505 560.23C605.045 560.019 604.693 559.734 604.264 559.502C604.578 558.963 604.645 558.057 604.884 557.441C605.47 555.936 606.384 554.604 607.499 553.38C607.469 553.613 607.234 553.813 607.1 554.016C606.129 555.494 605.49 557.325 605.46 559.472C606.485 559.313 607.707 559.117 608.917 558.896C609.312 558.824 609.72 558.676 610.025 558.684C610.518 558.696 610.981 559.044 611.532 559.048C611.401 558.763 611.151 558.56 610.867 558.381C609.954 558.452 608.935 558.34 608.12 558.441C608.036 558.452 607.927 558.485 607.809 558.532C607.82 558.528 607.546 558.653 607.588 558.654C607.403 558.652 606.953 558.215 606.746 558.169C607.172 556.308 608.133 554.814 609.05 553.289Z" fill="#000072"/>
<path fill-rule="evenodd" clip-rule="evenodd" d="M613.424 534.702V587.035V534.702Z" fill="#000072"/>
<path d="M613.424 534.702V587.035" stroke="#000072" stroke-width="3" stroke-miterlimit="10"/>
<path d="M597.098 534.345C597.098 534.345 599.973 577.215 595.762 584.806" stroke="#000072" stroke-width="3" stroke-miterlimit="10"/>
<path d="M584.173 533.523C584.173 533.523 590.658 553.358 581.287 580.151" stroke="#000072" stroke-width="3" stroke-miterlimit="10"/>
<path d="M628.333 534.702C628.333 534.702 625.326 572.688 629.675 585.621" stroke="#000072" stroke-width="3" stroke-miterlimit="10"/>
<path d="M643.67 533.523C643.67 533.523 636.796 571.19 647.005 580.151" stroke="#000072" stroke-width="3" stroke-miterlimit="10"/>
<path d="M570.734 541.054C570.734 541.054 577.21 534.872 585.714 541.054C585.714 541.054 590.147 534.918 597.518 541.898C597.518 541.898 601.538 534.256 613.371 541.054C613.371 541.054 618.365 534.667 627.325 541.054C627.325 541.054 634.364 533.962 642.609 540.702C642.609 540.702 649.961 532.697 656.325 539.847" stroke="#000072" stroke-width="3" stroke-miterlimit="10"/>
<path d="M612.482 550.875C612.251 550.711 612.021 550.556 611.793 550.41C603.733 545.243 597.885 551.019 597.885 551.019C591.907 544.811 586.362 551.019 586.362 551.019C577.069 540.172 572.051 551.019 572.051 551.019" stroke="#000072" stroke-width="3" stroke-miterlimit="10"/>
<path d="M612.25 550.991C612.25 550.991 619.597 545.099 627.325 550.991C627.325 550.991 634.835 543.698 641.408 551.317C641.408 551.317 651.167 543.805 654.807 551.166" stroke="#000072" stroke-width="3" stroke-miterlimit="10"/>
<path d="M572.051 569.132C572.051 569.132 578.014 559.305 584.289 569.966C584.289 569.966 595.544 562.189 597.939 573.05C597.939 573.05 607.258 568.311 613.771 576.111C613.771 576.111 620.672 568.037 628.665 574.195C628.665 574.195 634.002 561.846 643.036 571.374C643.036 571.374 648.602 561.076 654.808 566.952" stroke="#000072" stroke-width="3" stroke-miterlimit="10"/>
<path d="M571.441 575.008C571.441 575.008 579.207 567.129 582.602 576.111C582.602 576.111 593.787 571.053 596.91 580.151C596.91 580.151 608.468 574.087 613.279 583.789C613.279 583.789 620.118 577.343 628.338 581.722C628.338 581.722 635.894 570.353 644.64 577.064C644.64 577.064 650.862 566.431 654.586 573.05" stroke="#000072" stroke-width="3" stroke-miterlimit="10"/>
<path d="M503.371 660.602C503.371 660.602 537.788 624.41 581.29 627.904L591.179 658.289C591.179 658.289 580.49 703.401 513.104 688.201L503.371 660.602Z" fill="#000072"/>
<path d="M503.371 660.602C503.371 660.602 537.788 624.41 581.29 627.904L591.179 658.289C591.179 658.289 580.49 703.401 513.104 688.201L503.371 660.602Z" stroke="#000072" stroke-width="3" stroke-miterlimit="10"/>
<path d="M634.074 665.756L644.208 622.65L691.964 637.175L720.419 653.335V665.756L713.737 688.2C713.737 688.2 665.927 703.945 634.074 665.756Z" fill="#000072"/>
<path d="M634.074 665.756L644.208 622.65L691.964 637.175L720.419 653.335V665.756L713.737 688.2C713.737 688.2 665.927 703.945 634.074 665.756Z" stroke="#000072" stroke-width="3" stroke-miterlimit="10"/>
<path d="M392.396 608.346L429.161 703.706" stroke="#000072" stroke-width="3" stroke-miterlimit="10"/>
<path d="M382.859 620.385C382.859 620.385 389.212 664.526 416.943 702.987" stroke="#000072" stroke-width="3" stroke-miterlimit="10"/>
<path d="M407.324 604.677C407.324 604.677 436.039 653.444 440.476 704.477" stroke="#000072" stroke-width="3" stroke-miterlimit="10"/>
<path d="M425.748 608.346C425.748 608.346 443.164 643.076 452.982 703.706" stroke="#000072" stroke-width="3" stroke-miterlimit="10"/>
<path d="M378.957 640.982C378.957 640.982 379.03 631.215 385.97 635.002C385.97 635.002 388.553 617.922 399.897 628.766C399.897 628.766 400.327 611.426 416.181 621.823C416.181 621.823 420.704 609.097 430.2 620.385C430.2 620.385 434.91 617.781 437.941 623.652" stroke="#000072" stroke-width="3" stroke-miterlimit="10"/>
<path d="M383.959 626.354C383.959 626.354 386.393 613.722 396.083 617.908C396.083 617.908 398.001 607.524 410.779 610.977C410.779 610.977 412.659 604.186 427.821 612.866" stroke="#000072" stroke-width="3" stroke-miterlimit="10"/>
<path d="M380.309 646.179C380.309 646.179 380.844 636.391 388.245 643.201C388.245 643.201 390.578 626.255 403.509 637.175C403.509 637.175 403.856 620.582 418.904 629.959C418.904 629.959 424.44 620.694 434.09 628.766C434.09 628.766 435.813 623.944 440.628 628.766" stroke="#000072" stroke-width="3" stroke-miterlimit="10"/>
<path d="M380.309 654.577C380.309 654.577 383.313 645.165 391.532 653.335C391.532 653.335 396.562 637.968 407.323 648.368C407.323 648.368 411.658 627.855 424.857 641.943C424.857 641.943 426.91 628.549 437.408 638.459C437.408 638.459 438.204 630.234 443.739 636.838" stroke="#000072" stroke-width="3" stroke-miterlimit="10"/>
<path d="M382.859 661.686C382.859 661.686 385.655 653.934 393.799 659.499C393.799 659.499 402.654 647.262 410.78 656.026C410.78 656.026 419.501 642.855 427.822 652.864C427.822 652.864 432.15 640.506 440.708 649.109C440.708 649.109 443.879 644.502 446.441 648.488" stroke="#000072" stroke-width="3" stroke-miterlimit="10"/>
<path d="M385.803 670.811C385.803 670.811 390.725 662.366 397.019 667.41C397.019 667.41 402.534 657.785 414.552 665.803C414.552 665.803 420.271 652.773 432.039 662.613C432.039 662.613 436.294 651.526 443.744 661.579C443.744 661.579 443.772 650.82 448.988 656.026" stroke="#000072" stroke-width="3" stroke-miterlimit="10"/>
<path d="M389.42 681.458V678.749C389.42 678.749 392.718 668.87 400.614 675.315C400.614 675.315 408.767 665.967 417.394 673.179C417.394 673.179 426.309 661.506 434.373 670.811C434.373 670.811 439.229 660.609 446.442 670.774" stroke="#000072" stroke-width="3" stroke-miterlimit="10"/>
<path d="M395.564 684.771C395.564 684.771 395.87 679.515 403.693 681.458C403.693 681.458 412.078 675.103 420.415 681.027C420.415 681.027 426.297 670.59 436.28 678.501C436.28 678.501 443.192 670.368 447.922 677.256" stroke="#000072" stroke-width="3" stroke-miterlimit="10"/>
<path d="M399.902 691.33C399.902 691.33 402.924 686.732 408.454 689.993C408.454 689.993 415.633 683.026 423.427 688.824C423.427 688.824 428.848 680.605 437.969 686.519C437.969 686.519 443.752 679.024 449.524 684.771" stroke="#000072" stroke-width="3" stroke-miterlimit="10"/>
<path d="M405.895 695.991C405.895 695.991 406.843 691.123 412.03 695.778C412.03 695.778 418.089 691.886 425.75 695.991C425.75 695.991 434.106 690.752 439.367 694.877C439.367 694.877 446.208 689.736 450.753 694.643" stroke="#000072" stroke-width="3" stroke-miterlimit="10"/>
<path d="M414.65 699.393C414.65 699.393 418.68 695.161 427.822 700.229C427.822 700.229 432.84 697.165 437.436 698.245C438.092 698.399 438.74 698.638 439.364 698.983" stroke="#000072" stroke-width="3" stroke-miterlimit="10"/>
<path d="M440.051 700.258C440.051 700.258 444.699 696.202 452.596 698.995" stroke="#000072" stroke-width="3" stroke-miterlimit="10"/>
<path d="M448.989 654.603C447.602 657.756 452.984 707.378 452.984 707.378H520.116L518.687 703.705L503.375 674.487L493.791 647.04C472.072 643.96 450.754 593.08 450.754 593.08L435.637 609.161L439.367 617.907L446.445 634.271L448.989 654.603Z" fill="#000072"/>
<path d="M831.676 606.038L798.814 703.706" stroke="#000072" stroke-width="3" stroke-miterlimit="10"/>
<path d="M840.404 617.96C840.404 617.96 834.563 680.285 807.137 705.202" stroke="#000072" stroke-width="3" stroke-miterlimit="10"/>
<path d="M819.019 605.444C819.019 605.444 796.764 658.916 786.195 704.3" stroke="#000072" stroke-width="3" stroke-miterlimit="10"/>
<path d="M800.521 610.132C800.521 610.132 784.323 640.517 775.92 709.951" stroke="#000072" stroke-width="3" stroke-miterlimit="10"/>
<path d="M845.87 634.427C845.87 634.427 844.099 625.787 838.482 631.603C838.482 631.603 836.137 616.159 825.062 625.695C825.062 625.695 821.936 612.533 812.216 622.65C812.216 622.65 804.65 610.07 795.228 622.65C795.228 622.65 793.281 619.464 788.723 623.652" stroke="#000072" stroke-width="3" stroke-miterlimit="10"/>
<path d="M846.438 643.17C846.438 643.17 844.358 634.693 836.697 640.983C836.697 640.983 832.244 630.36 821.201 637.175C821.201 637.175 818.611 626.416 807.134 633.424C807.134 633.424 803.743 625.233 792.313 631.053C792.313 631.053 789.638 625.873 784.85 631.51" stroke="#000072" stroke-width="3" stroke-miterlimit="10"/>
<path d="M846.441 653.335C846.441 653.335 842.066 644.207 834.593 650.119C834.593 650.119 827.608 640.221 817.513 648.127C817.513 648.127 813.696 638.477 803.991 645.065C803.991 645.065 799.025 634.425 788.721 641.944C788.721 641.944 786.833 636.335 779.342 640.983" stroke="#000072" stroke-width="3" stroke-miterlimit="10"/>
<path d="M844.633 661.582C844.633 661.582 842.054 652.556 831.852 660.042C831.852 660.042 824.9 648.456 814.52 657.033C814.52 657.033 810.032 645.228 800.519 654.872C800.519 654.872 797.519 645.268 786.192 652.566C786.192 652.566 784.534 645.051 779.699 651.499C774.864 657.948 778.421 651.379 778.421 651.379" stroke="#000072" stroke-width="3" stroke-miterlimit="10"/>
<path d="M841.894 670.537C841.894 670.537 838.203 660.46 829.104 668.372C829.104 668.372 823.411 660.144 811.722 665.341C811.722 665.341 804.656 656.852 796.462 665.337C796.462 665.337 790.882 656.708 783.556 663.896C783.556 663.896 780.702 649.736 773.814 663.421" stroke="#000072" stroke-width="3" stroke-miterlimit="10"/>
<path d="M836.311 677.525C836.311 677.525 836.086 668.32 826.27 675.724C826.27 675.724 819.801 666.693 808.415 675.184C808.415 675.184 802.258 665.892 793.932 675.712C793.932 675.712 788.259 666.706 781.223 675.424C781.223 675.424 781.001 660.411 771.504 672.18" stroke="#000072" stroke-width="3" stroke-miterlimit="10"/>
<path d="M831.679 685.317C831.679 685.317 830.218 680.295 822.377 684.175C822.377 684.175 813.861 677.777 805.444 684.01C805.444 684.01 800.585 677.177 791.692 683.3C791.692 683.3 784.374 676.919 779.346 683.034C779.346 683.034 779.79 671.618 769.119 680.384" stroke="#000072" stroke-width="3" stroke-miterlimit="10"/>
<path d="M826.029 691.416C826.029 691.416 824.826 685.746 818.314 691.416C818.314 691.416 810.918 686.444 802.605 692.45C802.605 692.45 794.422 687.265 789.158 692.45C789.158 692.45 783.518 684.801 777.55 692.45C777.55 692.45 775.724 682.343 769.959 690.673" stroke="#000072" stroke-width="3" stroke-miterlimit="10"/>
<path d="M821.053 694.333C821.053 694.333 818.353 691.861 815.644 695.44C815.644 695.44 804.834 692.262 800.519 698.643C800.519 698.643 795.875 693.581 787.558 698.643C787.558 698.643 783.494 691.168 777.401 698.643C777.401 698.643 774.043 688.705 767.75 698.643" stroke="#000072" stroke-width="3" stroke-miterlimit="10"/>
<path d="M735.27 646.238L756.846 625.437L773.817 596.642L775.918 590.251L790.162 606.039L791.28 613.882L783.558 622.65L779.345 633.423L777.548 646.238V653.12L777.402 657.713C777.402 657.713 770.034 692.457 773.817 706.13L708.104 707.761L705.961 703.706L716.694 682.851L728.475 655.182L735.27 646.238Z" fill="#000072"/>
<path d="M723.213 511.361C723.213 511.361 670.624 613.444 664.719 641.944" stroke="#000072" stroke-width="3" stroke-miterlimit="10"/>
<path d="M706.434 519.199C706.434 519.199 655.027 622.13 659.574 630.839" stroke="#000072" stroke-width="3" stroke-miterlimit="10"/>
<path d="M755.515 513.576C755.515 513.576 716.432 620.064 698.254 644.947" stroke="#000072" stroke-width="3" stroke-miterlimit="10"/>
<path d="M684.994 534.702C684.994 534.702 696.887 522.111 699.827 532.621C699.827 532.621 707.813 520.859 714.319 528.916C714.319 528.916 729.815 516.434 732.296 530.398C732.296 530.398 746.385 519.294 747.558 534.702C747.558 534.702 752.674 533.254 752.55 546.198C752.55 546.198 757.145 556.255 755.812 560.162" stroke="#000072" stroke-width="3" stroke-miterlimit="10"/>
<path d="M704.586 522.917C704.586 522.917 713.899 514.504 719.214 519.199C719.214 519.199 731.745 506.493 738.278 517.063C738.278 517.063 750.669 514.873 750.889 525.952C750.889 525.952 755.906 532.249 755.515 534.702C755.515 534.702 749.772 573.303 738.787 596.242C738.787 596.242 724.223 646.229 709.392 650.229" stroke="#000072" stroke-width="3" stroke-miterlimit="10"/>
<path d="M683.213 542.455C683.213 542.455 690.659 533.158 695.074 542.455C695.074 542.455 705.992 531.926 706.434 542.455C706.434 542.455 723.668 534.119 725.943 544.578C725.943 544.578 738.668 535.505 741.24 551.018C741.24 551.018 753.473 546.441 749.593 562.226C749.593 562.226 756.38 560.45 755.1 570.377" stroke="#000072" stroke-width="3" stroke-miterlimit="10"/>
<path d="M676.506 554.076C676.506 554.076 687.325 543.965 688.687 555.864C688.687 555.864 699.164 545.66 699.737 558.559C699.737 558.559 718.455 548.946 718.028 562.226C718.028 562.226 731.104 558.058 733.451 570.556C733.451 570.556 744.745 566.788 745.921 577.334C745.921 577.334 754.252 576.815 753.471 583.548" stroke="#000072" stroke-width="3" stroke-miterlimit="10"/>
<path d="M670.758 566.952C670.758 566.952 679.095 553.028 684.162 566.87C684.162 566.87 690.905 560.784 693.966 569.406C693.966 569.406 710.365 563.932 711.801 576.111C711.801 576.111 722.898 569.137 728.43 580.151C728.43 580.151 741.3 578.025 743.171 585.621C743.171 585.621 749.041 583.793 751.146 590.25" stroke="#000072" stroke-width="3" stroke-miterlimit="10"/>
<path d="M667.473 575.019C667.473 575.019 675.187 570.984 677.487 580.151C677.487 580.151 685.476 573.158 688.685 581.546C688.685 581.546 701.766 576.541 705.961 587.034C705.961 587.034 720.132 581.658 724.739 591.556C724.739 591.556 734.35 589.001 739.593 595.522C739.593 595.522 745.968 593.128 746.838 599.639" stroke="#000072" stroke-width="3" stroke-miterlimit="10"/>
<path d="M661.945 585.787C661.945 585.787 672.64 577.838 672.622 591.173C672.622 591.173 681.913 584.596 683.21 592.807C683.21 592.807 697.673 588.612 701.247 599.639C701.247 599.639 713.29 590.861 719.233 604.259C719.233 604.259 731.623 597.624 734.433 608.558" stroke="#000072" stroke-width="3" stroke-miterlimit="10"/>
<path d="M658 598.554C658 598.554 666.265 589.638 669.024 599.638C669.024 599.638 676.634 593.197 679.442 602.342C679.442 602.342 692.753 598.649 697.248 608.558C697.248 608.558 709.197 603.429 715.012 613.616C715.012 613.616 725.342 607.03 730.677 617.059" stroke="#000072" stroke-width="3" stroke-miterlimit="10"/>
<path d="M654.283 606.971C654.283 606.971 662.754 601.729 665.42 608.558C665.42 608.558 672.839 603.43 675.695 611.051C675.695 611.051 690.248 608.057 692.505 617.059C692.505 617.059 705.788 613.259 710.945 622.226C710.945 622.226 721.038 618.651 726.881 625.743C726.881 625.743 729.246 624.326 729.241 630.839" stroke="#000072" stroke-width="3" stroke-miterlimit="10"/>
<path d="M651.057 614.898C651.057 614.898 660.109 610.255 661.944 616.208C661.944 616.208 671.657 612.315 672.44 618.976C672.44 618.976 688.911 615.246 689.888 624.965C689.888 624.965 704.472 620.596 706.626 630.838C706.626 630.838 719.27 625.635 722.063 637.174C722.063 637.174 726.996 634.836 728.425 641.944" stroke="#000072" stroke-width="3" stroke-miterlimit="10"/>
<path d="M495.299 503.929C495.299 503.929 542.177 581.013 553.132 630.839" stroke="#000072" stroke-width="3" stroke-miterlimit="10"/>
<path d="M522.188 518.809C522.188 518.809 557.209 582.989 568.837 625.463" stroke="#000072" stroke-width="3" stroke-miterlimit="10"/>
<path d="M472.744 516.161C472.744 516.161 513.57 631.953 526.939 640.982" stroke="#000072" stroke-width="3" stroke-miterlimit="10"/>
<path d="M471.113 537.775C471.113 537.775 504.133 640.959 513.983 646.237" stroke="#000072" stroke-width="3" stroke-miterlimit="10"/>
<path d="M475.695 520.824C475.695 520.824 476.606 508.712 486.471 515.726C486.471 515.726 490.401 507.049 501.576 514.621C501.576 514.621 504.543 509.975 513.982 513.757" stroke="#000072" stroke-width="3" stroke-miterlimit="10"/>
<path d="M473.326 544.578C473.326 544.578 474.21 536.055 481.171 539.387C481.171 539.387 483.326 527.577 495.305 535.833C495.305 535.833 497.528 523.409 510.751 531.012C510.751 531.012 519.061 520.125 528.631 531.012C528.631 531.012 535.634 524.504 540.748 531.012" stroke="#000072" stroke-width="3" stroke-miterlimit="10"/>
<path d="M471.113 534.345C471.113 534.345 474.184 529.157 477.872 531.012C477.872 531.012 481.849 519.732 490.437 524.757C490.437 524.757 495.879 516.58 505.699 521.884C505.699 521.884 515.924 517.176 522.191 520.095" stroke="#000072" stroke-width="3" stroke-miterlimit="10"/>
<path d="M469.994 560.739C469.994 560.739 471.175 555.003 477.873 558.304C477.873 558.304 478.796 549.633 486.471 554.114C486.471 554.114 488.44 542.21 502.101 549.581C502.101 549.581 503.48 535.691 517.978 544.578C517.978 544.578 524.354 533.927 534.011 541.608C534.011 541.608 535.088 535.542 542.488 540.701" stroke="#000072" stroke-width="3" stroke-miterlimit="10"/>
<path d="M471.113 574.134C471.113 574.134 474.169 564.643 481.969 570.377C481.969 570.377 483.582 560.255 491.6 566.952C491.6 566.952 497.541 557.647 506.24 562.226C506.24 562.226 514.068 549.605 524.217 556.837C524.217 556.837 531.586 547.115 539.542 552.855C539.542 552.855 539.826 549.147 547.356 551.018" stroke="#000072" stroke-width="3" stroke-miterlimit="10"/>
<path d="M473.373 583.548C473.373 583.548 475.473 573.789 485.357 580.15C485.357 580.15 489.948 573.475 495.928 577.97C495.928 577.97 501.072 566.682 511.701 573.175C511.701 573.175 518.835 562.896 530.295 569.367C530.295 569.367 535.532 560.783 545.62 565.7C545.62 565.7 544.764 560.656 552.425 563.867" stroke="#000072" stroke-width="3" stroke-miterlimit="10"/>
<path d="M477.254 593.081C477.254 593.081 479.555 584.517 487.534 588.815C487.534 588.815 492.288 579.853 499.509 586.61C499.509 586.61 502.692 575.216 516.202 583.005C516.202 583.005 522.649 573.06 534.526 577.924C534.526 577.924 539.241 568.52 549.873 574.272C549.873 574.272 552.083 569.604 557.451 573.337" stroke="#000072" stroke-width="3" stroke-miterlimit="10"/>
<path d="M477.873 601.583C477.873 601.583 481.111 590.617 489.955 593.081C489.955 593.081 497.901 588.802 501.907 592.72C501.907 592.72 513.331 584.135 519.198 590.25C519.198 590.25 531.003 580.917 538.157 586.862C538.157 586.862 546.218 580.09 554.109 584.806C554.109 584.806 558.433 580.037 563.774 583.548" stroke="#000072" stroke-width="3" stroke-miterlimit="10"/>
<path d="M568.842 596.642C568.842 596.642 560.62 585.775 558.712 595.997C558.712 595.997 544.676 587.586 543.352 599.639C543.352 599.639 529.565 589.282 524.716 602.814C524.716 602.814 510.618 595.061 507.034 605.977C507.034 605.977 498.043 596.57 496.654 608.559C496.654 608.559 491.959 606.766 491.139 611.418" stroke="#000072" stroke-width="3" stroke-miterlimit="10"/>
<path d="M572.551 605.977C572.551 605.977 564.949 597.58 562.926 607.099C562.926 607.099 551.752 599.747 547.026 609.688C547.026 609.688 534.975 603.598 530.292 614.898C530.292 614.898 517.401 607.71 513.981 620.101C513.981 620.101 505.128 616.517 502.099 625.463C502.099 625.463 497.547 624.257 495.299 630.838" stroke="#000072" stroke-width="3" stroke-miterlimit="10"/>
<path d="M574.319 613.174C574.319 613.174 568.582 602.805 565.902 615.715C565.902 615.715 558.782 611.287 550.446 620.385C550.446 620.385 539.783 616.732 533.929 623.792C533.929 623.792 525.484 621.468 519.356 627.666C519.019 628.006 518.69 628.372 518.369 628.766" stroke="#000072" stroke-width="3" stroke-miterlimit="10"/>
<path d="M518.688 628.372C518.688 628.372 510.812 627.656 506.72 635.001C506.72 635.001 501.037 635.244 498.413 641.943C495.789 648.642 497.182 640.983 497.182 640.983" stroke="#000072" stroke-width="3" stroke-miterlimit="10"/>
<path fill-rule="evenodd" clip-rule="evenodd" d="M612.718 231.571C703.184 231.571 772.777 325.761 772.777 404.41C772.777 483.06 645.22 514.842 612.718 516.392C580.216 517.943 446.027 480.754 446.027 402.104C446.027 323.453 522.252 231.571 612.718 231.571Z" fill="#FF850B"/>
<path d="M612.72 235.396C522.502 235.396 449.853 326.595 449.853 402.104C449.853 421.739 458.773 440.203 476.368 456.985C515.558 494.365 587.062 512.611 610.704 512.613C611.354 512.613 611.963 512.6 612.538 512.572C629.667 511.755 669.128 502.937 703.228 485.892C733.213 470.904 768.955 444.602 768.955 404.41C768.955 326.251 700.709 235.396 612.72 235.396ZM610.801 520.26C585.439 520.26 512.349 501.873 471.091 462.521C451.925 444.24 442.205 423.912 442.205 402.104C442.205 362.736 461.061 318.863 492.645 284.745C526.177 248.522 569.942 227.747 612.72 227.747C655.765 227.747 697.263 248.436 729.572 286.003C759.021 320.244 776.603 364.508 776.603 404.41C776.603 439.317 752.412 469.859 706.646 492.735C671.551 510.277 630.7 519.364 612.902 520.213C612.245 520.245 611.542 520.26 610.801 520.26Z" fill="#000072"/>
<g opacity="0.5">
<g opacity="0.5">
<path opacity="0.5" fill-rule="evenodd" clip-rule="evenodd" d="M612.718 231.572C668.318 231.572 716.027 267.156 744.547 312.838C744.844 314.315 745.13 315.797 745.38 317.291C719.342 279.11 678.743 253.933 633.781 247.141C636.664 248.231 638.335 249.525 638.335 250.913C638.335 254.796 625.265 257.942 609.142 257.942C593.022 257.942 579.952 254.796 579.952 250.913C579.952 249.525 581.62 248.231 584.505 247.141C539.541 253.934 498.946 279.113 472.908 317.291L473.052 316.486C503.076 268.979 554.996 231.572 612.718 231.572Z" fill="white"/>
</g>
</g>
<path fill-rule="evenodd" clip-rule="evenodd" d="M768.478 428.577C745.983 489.656 641.657 515.013 612.715 516.393C584.069 517.76 476.46 489.028 451.318 428.353C453.246 395.303 470.031 386.271 501.071 402.421C513.836 409.061 526.822 415.988 537.111 410.714C595.843 380.601 631.705 386.278 671.905 410.714C690.703 422.142 709.05 405.095 720.56 399.898C757.219 383.34 774.038 394.921 768.478 428.577Z" fill="white"/>
<g opacity="0.300003">
<g opacity="0.300003">
<path opacity="0.300003" fill-rule="evenodd" clip-rule="evenodd" d="M772.083 390.676C772.538 395.292 772.779 399.878 772.779 404.411C772.779 407.308 772.586 410.132 772.252 412.904L772.286 412.075C767.818 464.563 662.158 504.639 605.316 507.875C557.867 510.577 463.1 459.483 447.166 412.075C447.195 413.058 447.246 414.039 447.29 415.019C446.478 410.843 446.029 406.543 446.029 402.104C446.029 398.571 446.189 395.01 446.49 391.431L446.738 390.664C483.779 443.937 544.544 475.702 609.416 475.702C674.281 475.702 735.041 443.939 772.083 390.676Z" fill="#000072"/>
</g>
</g>
<path fill-rule="evenodd" clip-rule="evenodd" d="M554.189 365.544C549.13 363.287 543.952 359.506 538.661 354.207C529.487 354.624 522.148 364.426 522.148 376.456C522.148 388.751 529.812 398.719 539.265 398.719C548.72 398.719 556.383 388.751 556.383 376.456C556.383 372.491 555.586 368.769 554.189 365.544Z" fill="#000072"/>
<path d="M697.844 344.581C691.67 352.785 685.599 359.129 679.634 363.613C670.858 370.209 661.359 371.364 660.307 364.099C665.027 363.558 669.947 361.363 675.063 357.518C687.674 348.038 691.617 341.934 697.844 344.581Z" fill="#000072"/>
<path fill-rule="evenodd" clip-rule="evenodd" d="M669.066 365.543C674.124 363.287 679.303 359.506 684.596 354.207C693.769 354.623 701.106 364.425 701.106 376.455C701.106 388.75 693.444 398.718 683.989 398.718C674.535 398.718 666.871 388.75 666.871 376.455C666.871 372.49 667.668 368.768 669.066 365.543Z" fill="#000072"/>
<path fill-rule="evenodd" clip-rule="evenodd" d="M676.915 370.784C674.138 370.784 671.889 373.182 671.889 376.139C671.889 379.097 674.138 381.495 676.915 381.495C679.69 381.495 681.939 379.097 681.939 376.139C681.939 373.182 679.69 370.784 676.915 370.784Z" fill="white"/>
<path fill-rule="evenodd" clip-rule="evenodd" d="M609.403 380.361C621.645 380.361 631.568 386.979 631.568 395.142C631.568 403.306 621.645 409.924 609.403 409.924C597.161 409.924 587.238 403.306 587.238 395.142C587.238 386.979 597.161 380.361 609.403 380.361Z" fill="#000072"/>
<path d="M630.598 428.038C622.797 428.038 615.25 425.136 609.459 419.95C602.992 425.841 594.077 428.582 585.314 427.188C575.135 425.57 566.503 418.592 562.784 408.975C562.022 407.005 563.001 404.79 564.971 404.028C566.939 403.267 569.153 404.246 569.916 406.216C572.655 413.3 579.015 418.442 586.514 419.634C594.017 420.826 601.656 417.911 606.456 412.028C607.173 411.149 608.243 410.634 609.377 410.622C610.52 410.623 611.59 411.101 612.327 411.964C617.334 417.833 624.898 420.951 632.593 420.305C640.279 419.66 647.229 415.322 651.187 408.7C652.27 406.886 654.621 406.295 656.43 407.38C658.242 408.463 658.834 410.812 657.75 412.625C652.532 421.356 643.367 427.077 633.233 427.927C632.353 428.002 631.474 428.038 630.598 428.038Z" fill="#000072"/>
<path fill-rule="evenodd" clip-rule="evenodd" d="M609.42 414.447C617.391 422.025 625.221 425.249 632.914 424.117C634.817 474.07 584.193 472.035 585.916 423.411C595.347 424.609 603.179 421.622 609.42 414.447Z" fill="#000072"/>
<path d="M589.722 427.494C590.101 440.222 594.614 450.229 602.131 454.681C607.097 457.621 612.708 457.662 617.528 454.791C624.724 450.504 628.862 440.908 629.128 428.149C622.622 427.941 616.086 425.124 609.613 419.739C604.042 424.897 597.435 427.495 589.896 427.495C589.839 427.495 589.78 427.495 589.722 427.494ZM609.989 464.55C605.972 464.55 601.935 463.454 598.235 461.263C587.35 454.816 581.467 440.97 582.094 423.275L582.243 419.09L586.396 419.617C594.561 420.652 601.138 418.139 606.534 411.936L609.157 408.921L612.053 411.674C619.192 418.462 625.841 421.295 632.357 420.332L636.572 419.712L636.734 423.971C637.403 441.544 631.829 455.173 621.441 461.363C617.874 463.488 613.942 464.55 609.989 464.55Z" fill="#000072"/>
<path fill-rule="evenodd" clip-rule="evenodd" d="M609.841 442.071C603.034 442.071 596.64 445.331 592.643 450.837C601.846 463.947 618.164 464.162 626.956 450.726C622.952 445.286 616.599 442.071 609.841 442.071Z" fill="#FF0066"/>
<path d="M597.59 450.924C601.135 454.833 605.593 456.952 610.219 456.909C614.69 456.836 618.815 454.725 622.06 450.903C618.827 447.73 614.425 445.895 609.837 445.895C605.231 445.895 600.825 447.736 597.59 450.924ZM609.981 464.561C602.107 464.561 594.663 460.376 589.51 453.034L587.941 450.799L589.546 448.589C594.248 442.112 601.833 438.246 609.837 438.246C617.776 438.246 625.325 442.063 630.031 448.458L631.605 450.597L630.152 452.82C625.353 460.152 618.134 464.43 610.344 464.557C610.223 464.559 610.102 464.561 609.981 464.561Z" fill="#000072"/>
<path fill-rule="evenodd" clip-rule="evenodd" d="M754.16 324.379C729.605 283.789 700.165 256.309 665.838 241.941C733.173 147.559 762.613 175.038 754.16 324.379Z" fill="#FF850B"/>
<path d="M671.707 240.336C701.843 254.094 728.445 278.211 750.95 312.164C755.056 220.144 742.579 195.655 731.101 191.617C722.341 188.538 704.974 194.661 671.707 240.336ZM757.278 336.922L750.888 326.359C726.874 286.665 697.762 259.45 664.361 245.469L659.941 243.62L662.724 239.719C693.525 196.546 716.714 178.445 733.638 184.401C755.226 191.997 762.959 236.544 757.976 324.595L757.278 336.922Z" fill="#000072"/>
<path fill-rule="evenodd" clip-rule="evenodd" d="M659.995 329.316C665.658 326.994 671.367 327.835 672.745 331.197C674.123 334.559 670.649 339.169 664.987 341.493C659.324 343.815 653.615 342.972 652.237 339.61C650.859 336.249 654.334 331.639 659.995 329.316Z" fill="white"/>
<path fill-rule="evenodd" clip-rule="evenodd" d="M561.327 329.092C555.664 326.768 549.955 327.611 548.577 330.973C547.199 334.335 550.672 338.944 556.335 341.267C561.997 343.589 567.706 342.747 569.084 339.386C570.462 336.024 566.989 331.414 561.327 329.092Z" fill="white"/>
<path fill-rule="evenodd" clip-rule="evenodd" d="M541.786 370.784C539.009 370.784 536.76 373.182 536.76 376.139C536.76 379.097 539.009 381.495 541.786 381.495C544.561 381.495 546.81 379.097 546.81 376.139C546.81 373.182 544.561 370.784 541.786 370.784Z" fill="white"/>
<path fill-rule="evenodd" clip-rule="evenodd" d="M467.229 326.312C491.782 285.721 521.223 258.242 555.549 243.874C488.215 149.491 458.775 176.972 467.229 326.312Z" fill="#FF850B"/>
<path d="M494.374 192.881C492.837 192.881 491.481 193.13 490.285 193.551C478.808 197.589 466.331 222.078 470.437 314.098C492.941 280.146 519.542 256.029 549.679 242.269C520.955 202.832 504.083 192.881 494.374 192.881ZM464.11 338.857L463.412 326.529C458.427 238.478 466.16 193.931 487.748 186.335C504.661 180.385 527.858 198.476 558.661 241.652L561.444 245.553L557.025 247.402C523.622 261.384 494.51 288.6 470.5 328.293L464.11 338.857Z" fill="#000072"/>
<g opacity="0.649994">
<g opacity="0.649994">
<path opacity="0.649994" fill-rule="evenodd" clip-rule="evenodd" d="M547.121 247.724C549.899 246.35 552.713 245.067 555.559 243.874C513.827 185.378 486.658 173.714 474.037 208.836C487.478 184.139 511.837 197.099 547.117 247.721L547.121 247.724Z" fill="white"/>
</g>
</g>
<path fill-rule="evenodd" clip-rule="evenodd" d="M485.616 298.797C497.585 283.988 511.15 271.169 526.313 260.345C492.324 194.135 478.757 206.952 485.616 298.797Z" fill="#000072"/>
<path d="M494.364 222.567C494.196 222.567 494.082 222.59 494.015 222.608C493.606 222.724 489.973 224.221 488.419 241.084C487.372 252.446 487.495 268.579 488.783 289.127C498.665 277.942 509.599 267.905 521.405 259.183C503.521 224.988 496.102 222.567 494.364 222.567ZM482.522 308.707L481.804 299.081C476.585 229.193 484 217.483 491.943 215.245C501.441 212.563 512.742 225.533 529.715 258.597L531.225 261.538L528.535 263.458C513.73 274.026 500.29 286.725 488.589 301.201L482.522 308.707Z" fill="#000072"/>
<g opacity="0.300003">
<g opacity="0.300003">
<path opacity="0.300003" fill-rule="evenodd" clip-rule="evenodd" d="M490.028 220.951C477.624 230.23 469.613 255.334 465.994 296.262C466.212 305.661 466.623 315.676 467.224 326.312C469.058 322.994 470.998 319.714 473.047 316.485L472.904 317.29C482.812 302.173 493.47 289.067 504.874 277.971C498.205 284.263 491.921 291.037 486.021 298.291C485.905 298.433 485.79 298.574 485.674 298.719C485.664 298.731 485.654 298.744 485.642 298.761C485.631 298.773 485.623 298.785 485.612 298.796C482.289 254.295 483.761 228.347 490.028 220.951ZM731.348 219.017C743.753 228.297 751.764 253.4 755.381 294.327C755.164 303.726 754.753 313.743 754.153 324.378C752.317 321.06 750.377 317.781 748.328 314.551L748.472 315.356C738.565 300.239 727.907 287.133 716.501 276.038C723.172 282.33 729.454 289.104 735.354 296.358C735.47 296.499 735.586 296.641 735.701 296.785C735.712 296.798 735.722 296.812 735.734 296.826C735.744 296.84 735.753 296.85 735.763 296.864C739.089 252.363 737.614 226.413 731.348 219.017Z" fill="#000072"/>
</g>
</g>
<g opacity="0.649994">
<g opacity="0.649994">
<path opacity="0.649994" fill-rule="evenodd" clip-rule="evenodd" d="M674.282 245.789C671.504 244.415 668.69 243.133 665.844 241.941C707.576 183.445 734.746 171.779 747.367 206.901C733.927 182.204 709.566 195.166 674.287 245.788L674.282 245.789Z" fill="white"/>
</g>
</g>
<path fill-rule="evenodd" clip-rule="evenodd" d="M735.767 296.864C723.798 282.054 710.233 269.235 695.07 258.411C729.059 192.201 742.627 205.019 735.767 296.864Z" fill="#000072"/>
<path d="M699.981 257.249C711.789 265.972 722.724 276.011 732.603 287.194C733.891 266.645 734.014 250.513 732.967 239.15C731.412 222.288 727.781 220.79 727.372 220.675C726.616 220.465 719.589 219.759 699.981 257.249ZM738.863 306.775L732.797 299.268C721.099 284.794 707.66 272.095 692.852 261.523L690.162 259.603L691.672 256.663C708.644 223.602 719.935 210.632 729.444 213.312C737.386 215.549 744.802 227.259 739.582 297.149L738.863 306.775Z" fill="#000072"/>
<path d="M494.374 192.88C492.837 192.88 491.481 193.129 490.285 193.55C478.807 197.589 466.329 222.078 470.436 314.098C492.941 280.145 519.541 256.028 549.678 242.268C520.954 202.832 504.083 192.88 494.374 192.88ZM464.107 338.856L463.409 326.529C458.426 238.478 466.16 193.93 487.747 186.334C504.661 180.385 527.858 198.476 558.661 241.652L561.444 245.552L557.025 247.402C523.621 261.384 494.51 288.599 470.498 328.293L464.107 338.856Z" fill="#000072"/>
<path d="M612.72 235.396C522.502 235.396 449.853 326.595 449.853 402.104C449.853 421.739 458.773 440.203 476.368 456.985C515.558 494.365 587.062 512.611 610.704 512.613C611.354 512.613 611.963 512.6 612.538 512.572C629.667 511.755 669.128 502.937 703.228 485.892C733.213 470.904 768.955 444.602 768.955 404.41C768.955 326.251 700.709 235.396 612.72 235.396ZM610.801 520.26C585.439 520.26 512.349 501.873 471.091 462.521C451.925 444.24 442.205 423.912 442.205 402.104C442.205 362.736 461.061 318.863 492.645 284.745C526.177 248.522 569.942 227.747 612.72 227.747C655.765 227.747 697.263 248.436 729.572 286.003C759.021 320.244 776.603 364.508 776.603 404.41C776.603 439.317 752.412 469.859 706.646 492.735C671.551 510.277 630.7 519.364 612.902 520.213C612.245 520.245 611.542 520.26 610.801 520.26Z" fill="#000072"/>
<g opacity="0.559998">
<g opacity="0.559998">
<path opacity="0.559998" fill-rule="evenodd" clip-rule="evenodd" d="M616.62 386.284C619.962 387.166 622.435 388.773 622.145 389.876C621.854 390.977 618.91 391.156 615.567 390.274C612.225 389.394 609.75 387.786 610.041 386.683C610.331 385.582 613.277 385.402 616.62 386.284Z" fill="white"/>
</g>
</g>
<path d="M528.189 344.581C534.365 352.785 540.436 359.129 546.401 363.613C555.177 370.209 564.677 371.364 565.729 364.099C561.008 363.558 556.089 361.363 550.971 357.518C538.361 348.038 534.417 341.934 528.189 344.581Z" fill="#000072"/>
<path d="M671.707 240.336C701.843 254.094 728.445 278.211 750.95 312.164C755.056 220.144 742.579 195.655 731.101 191.617C722.341 188.538 704.974 194.661 671.707 240.336ZM757.278 336.922L750.888 326.359C726.874 286.665 697.762 259.45 664.361 245.469L659.941 243.62L662.724 239.719C693.525 196.546 716.714 178.445 733.638 184.401C755.226 191.997 762.959 236.544 757.976 324.595L757.278 336.922Z" fill="#000072"/>
<defs>
<filter id="filter0_f_3701_3" x="0.0114746" y="0" width="893.304" height="894" filterUnits="userSpaceOnUse" color-interpolation-filters="sRGB">
<feFlood flood-opacity="0" result="BackgroundImageFix"/>
<feBlend mode="normal" in="SourceGraphic" in2="BackgroundImageFix" result="shape"/>
<feGaussianBlur stdDeviation="50" result="effect1_foregroundBlur_3701_3"/>
</filter>
<filter id="filter1_f_3701_3" x="534.475" y="96" width="495.703" height="496" filterUnits="userSpaceOnUse" color-interpolation-filters="sRGB">
<feFlood flood-opacity="0" result="BackgroundImageFix"/>
<feBlend mode="normal" in="SourceGraphic" in2="BackgroundImageFix" result="shape"/>
<feGaussianBlur stdDeviation="50" result="effect1_foregroundBlur_3701_3"/>
</filter>
<filter id="filter2_f_3701_3" x="731.278" y="538" width="322.877" height="323" filterUnits="userSpaceOnUse" color-interpolation-filters="sRGB">
<feFlood flood-opacity="0" result="BackgroundImageFix"/>
<feBlend mode="normal" in="SourceGraphic" in2="BackgroundImageFix" result="shape"/>
<feGaussianBlur stdDeviation="50" result="effect1_foregroundBlur_3701_3"/>
</filter>
<filter id="filter3_f_3701_3" x="523.486" y="88" width="601.745" height="662.47" filterUnits="userSpaceOnUse" color-interpolation-filters="sRGB">
<feFlood flood-opacity="0" result="BackgroundImageFix"/>
<feBlend mode="normal" in="SourceGraphic" in2="BackgroundImageFix" result="shape"/>
<feGaussianBlur stdDeviation="50" result="effect1_foregroundBlur_3701_3"/>
</filter>
<radialGradient id="paint0_radial_3701_3" cx="0" cy="0" r="1" gradientUnits="userSpaceOnUse" gradientTransform="translate(446.664 447) rotate(80.7463) scale(236.072 235.939)">
<stop stop-color="#E11D2E"/>
<stop offset="1" stop-color="#FF5160" stop-opacity="0.31"/>
</radialGradient>
<radialGradient id="paint1_radial_3701_3" cx="0" cy="0" r="1" gradientUnits="userSpaceOnUse" gradientTransform="translate(782.327 344) rotate(77.6357) scale(105.874 105.819)">
<stop stop-color="#E11D2E"/>
<stop offset="1" stop-color="#FF5160" stop-opacity="0.58"/>
</radialGradient>
<radialGradient id="paint2_radial_3701_3" cx="0" cy="0" r="1" gradientUnits="userSpaceOnUse" gradientTransform="translate(892.716 699.5) rotate(77.6357) scale(43.9951 43.972)">
<stop stop-color="#E11D2E"/>
<stop offset="1" stop-color="#FF5160" stop-opacity="0.58"/>
</radialGradient>
</defs>
</svg>
