<svg id="eNC6SFwR3dJ1" xmlns="http://www.w3.org/2000/svg" xmlns:xlink="http://www.w3.org/1999/xlink" viewBox="0 0 290 425" shape-rendering="geometricPrecision" text-rendering="geometricPrecision"><g transform="translate(-1.350459 0)"><g><g><g><g><g><g opacity="0.300003"><g opacity="0.300003"><path d="M192.46,191.156c0,1.692-21.37,3.064-47.73,3.064-26.361,0-47.73-1.372-47.73-3.064c0-1.691,21.369-3.063,47.73-3.063c26.36,0,47.73,1.372,47.73,3.063Z" opacity="0.300003" fill="#000072"/></g></g></g></g><g><path d="M184.906,187.324c-1.894,2.197-4.673,3.433-7.574,3.433h-65.204c-2.902,0-5.681-1.236-7.575-3.433-1.046-1.215-1.82-2.567-2.34-3.952-.002,0-.002,0-.002-.001-1.637-4.344-.803-9.005,1.808-10.681c4.385-2.819,7.766.626,7.766.626.374-.88.881-1.642,1.448-2.295c2.135-2.468,5.129-3.408,5.129-3.408-1.628-9.335,2.005-17.794,2.005-17.794s8.95,6.767,24.363,6.767c15.412,0,24.363-6.767,24.363-6.767s3.632,8.459,2.005,17.794c0,0,4.792,1.505,6.577,5.703c0,0,3.381-3.445,7.765-.626c3.444,2.212,3.797,9.614-.534,14.634Z" fill="#b11313"/></g><g><g><g opacity="0.300003"><g opacity="0.300003"><path d="M114.384,181.922c.604-5.85-2.599-8.375-2.599-8.375.374-.879.88-1.641,1.447-2.294c4.97,5.945,1.152,10.669,1.152,10.669Z" opacity="0.300003" fill="#000072"/></g></g></g></g><g><g><g opacity="0.300003"><g opacity="0.300003"><path d="M175.093,181.922c-.604-5.85,2.599-8.375,2.599-8.375-.374-.879-.88-1.641-1.448-2.294-4.969,5.945-1.151,10.669-1.151,10.669Z" opacity="0.300003" fill="#000072"/></g></g></g></g><g><g><g opacity="0.300003"><g opacity="0.300003"><path d="M175.6,186.834c-.464-.116-.943-.156-1.418-.104-.678.075-1.844.19-3.554.318-2.574.193-4.822-1.741-4.997-4.317-.076-1.107.09-1.966.15-2.232-.673,2.874-1.914,5.522-2.67,6.974-3.842.161-8.708.291-14.724.329-.325-11.63,6.429-22.535,6.429-22.535-10.348,8.281-20.156,0-20.156,0c6.829,12.124,6.473,22.03,6.473,22.03l1.15.512c-6.57-.028-11.825-.165-15.918-.336-.756-1.452-1.997-4.1-2.67-6.974.063.276.239,1.195.14,2.366-.213,2.521-2.463,4.373-4.985,4.184-1.711-.129-2.878-.244-3.556-.319-.475-.052-.954-.012-1.418.104-7.419,1.847-11.531-3.066-11.663-3.229.52,1.384,1.294,2.737,2.34,3.951c1.895,2.197,4.674,3.433,7.575,3.433h32.61h32.61c2.902,0,5.68-1.236,7.575-3.433c1.046-1.214,1.82-2.567,2.34-3.951-.132.163-4.244,5.076-11.663,3.229Z" opacity="0.300003" fill="#000072"/></g></g></g></g><g><g><g opacity="0.300003"><g opacity="0.300003"><path d="M123.696,180.499c-.013-.057-.021-.087-.021-.087.007.029.014.058.021.087Z" opacity="0.300003" fill="#000072"/></g></g></g></g><g><g><g opacity="0.300003"><g opacity="0.300003"><path d="M165.781,180.499c.007-.029.014-.058.021-.087c0,0-.008.03-.021.087Z" opacity="0.300003" fill="#000072"/></g></g></g></g><g><path d="M144.723,190.312h32.61c2.736,0,5.311-1.166,7.064-3.198c2.265-2.626,3.382-6.263,2.915-9.49-.273-1.89-1.088-3.397-2.235-4.135-3.877-2.493-6.797.408-6.919.532-.158.161-.386.233-.608.191s-.408-.192-.496-.4c-1.644-3.866-6.112-5.308-6.157-5.322-.324-.101-.522-.427-.464-.761c1.294-7.419-.843-14.36-1.662-16.634-2.45,1.602-10.883,6.398-24.04,6.398s-21.589-4.796-24.04-6.398c-.818,2.274-2.956,9.215-1.662,16.634.058.334-.14.66-.463.761-.044.014-4.52,1.471-6.158,5.322-.088.208-.274.358-.496.4-.221.042-.449-.03-.607-.191-.122-.122-3.067-3.01-6.92-.532-1.147.738-1.961,2.245-2.235,4.135-.467,3.227.65,6.864,2.915,9.49c1.754,2.032,4.328,3.198,7.064,3.198h32.594Zm32.61,1.352h-65.204c-3.129,0-6.076-1.337-8.086-3.667-2.514-2.914-3.751-6.963-3.23-10.567.334-2.311,1.343-4.114,2.841-5.078c3.566-2.292,6.574-.795,7.895.138c1.677-3.071,4.788-4.578,6.058-5.086-1.414-9.197,1.992-17.275,2.14-17.621.082-.19.247-.333.448-.386s.415-.011.58.114c.088.066,8.976,6.631,23.956,6.631s23.869-6.565,23.957-6.631c.165-.125.379-.167.58-.114.2.053.365.196.447.386.149.346,3.555,8.424,2.141,17.621c1.27.508,4.38,2.015,6.057,5.086c1.322-.933,4.33-2.431,7.895-.138c1.498.964,2.507,2.767,2.841,5.078.522,3.604-.716,7.653-3.229,10.567-2.01,2.33-4.958,3.667-8.087,3.667" fill="#000072"/></g><g><path d="M112.178,172.997c.074.051.108.078.159.116.049.036.088.07.132.106.088.071.162.146.242.219.081.073.148.153.221.23.074.077.143.156.207.238.27.323.496.671.698,1.03.404.718.673,1.493.86,2.273.182.783.249,1.578.249,2.363.002.392-.042.784-.069,1.17-.058.386-.122.77-.202,1.147-.016.072-.087.118-.159.103-.055-.012-.094-.056-.103-.108l-.002-.009c-.066-.379-.107-.753-.157-1.124l-.097-.551c-.035-.183-.048-.367-.097-.546-.091-.358-.139-.72-.254-1.066-.05-.174-.089-.351-.143-.522l-.174-.509c-.241-.671-.534-1.313-.888-1.906-.092-.145-.178-.296-.278-.434l-.145-.211-.155-.201c-.099-.138-.213-.26-.32-.385-.055-.059-.109-.124-.165-.177-.027-.027-.055-.059-.08-.082-.023-.022-.06-.057-.062-.062l-.146-.293c-.156-.314-.029-.696.286-.853.213-.106.458-.081.642.044Z" fill="#000072"/></g><g><path d="M178.051,174.099c-.003.005-.04.04-.062.062-.025.023-.054.055-.08.083-.056.052-.111.117-.166.176-.107.125-.221.247-.319.385l-.155.201-.145.211c-.1.138-.186.289-.278.434-.354.593-.648,1.235-.888,1.906l-.174.509c-.054.171-.093.348-.143.522-.115.346-.164.708-.254,1.066-.049.179-.062.363-.097.546l-.097.551c-.05.371-.091.745-.157,1.124l-.002.009c-.013.073-.082.121-.154.109-.055-.01-.097-.052-.108-.104-.081-.377-.144-.76-.202-1.147-.027-.386-.071-.778-.07-1.17.001-.785.068-1.58.25-2.363.187-.78.456-1.555.86-2.273.202-.359.428-.707.697-1.03.065-.082.134-.161.208-.238.073-.077.14-.157.221-.23.08-.073.154-.148.242-.219.044-.036.083-.07.131-.106.051-.037.086-.065.16-.116.29-.198.686-.123.884.168.134.196.143.442.044.641l-.146.293Z" fill="#000072"/></g><g><path d="M119.034,167.766l.055.54.069.604c.024.206.057.412.074.629.02.216.032.44.021.682v.001c-.002.038-.034.068-.072.066-.014-.001-.026-.005-.036-.013-.199-.139-.37-.3-.518-.475-.151-.173-.275-.362-.396-.557-.118-.195-.225-.398-.319-.611-.044-.107-.09-.215-.125-.329-.019-.056-.036-.114-.052-.174-.016-.064-.028-.111-.042-.202-.059-.369.193-.716.561-.774.369-.059.715.192.774.561.002.012.003.024.005.036l.001.016Z" fill="#000072"/></g><g><path d="M171.785,167.927c-.014.091-.025.138-.042.202-.015.06-.033.118-.052.174-.035.114-.081.222-.125.329-.093.213-.201.416-.319.611-.121.195-.245.384-.396.558-.148.174-.319.335-.517.474-.031.022-.074.015-.096-.016-.008-.011-.012-.024-.013-.037v-.001c-.011-.242.001-.466.021-.682.018-.217.05-.423.074-.629l.069-.604.055-.54.001-.014c.038-.372.37-.642.741-.604.372.038.642.37.604.741-.001.012-.003.026-.005.038Z" fill="#000072"/></g><g><path d="M122.312,174.464c0,0-3.092-2.399-3.948-6.618c0,0-1.779-.9-3.009,1.534c0,0,1.418,7.43,8.321,11.031c0,0-.998-3.825-1.364-5.947" fill="#0096f2"/></g><g><path d="M116.069,169.477c.279,1.134,1.779,6.315,6.553,9.523-.302-1.226-.702-2.92-.932-4.175-.716-.62-3.047-2.867-3.903-6.458-.389-.067-1.089.011-1.718,1.11Zm7.606,11.61c-.107,0-.214-.025-.312-.077-7.11-3.709-8.612-11.187-8.672-11.503-.028-.147-.007-.298.061-.432.768-1.52,1.772-1.951,2.479-2.045.783-.104,1.372.18,1.437.213.185.093.316.266.357.468.793,3.907,3.673,6.197,3.702,6.22.132.103.222.253.251.418.357,2.069,1.341,5.854,1.351,5.892.067.258-.024.532-.233.699-.122.097-.271.147-.421.147" fill="#000072"/></g><g><path d="M167.166,174.464c0,0,3.093-2.399,3.949-6.618c0,0,1.779-.9,3.008,1.534c0,0-1.418,7.43-8.32,11.031c0,0,.997-3.825,1.363-5.947" fill="#0096f2"/></g><g><path d="M167.787,174.825c-.229,1.255-.63,2.949-.932,4.176c4.774-3.208,6.274-8.389,6.553-9.524-.38-.667-.83-1.039-1.339-1.107-.143-.019-.274-.011-.38.006-.859,3.586-3.186,5.829-3.902,6.449Zm-1.985,6.262c-.15,0-.299-.05-.421-.147-.209-.167-.3-.441-.233-.699.01-.038.995-3.823,1.352-5.892.028-.166.118-.315.25-.418.029-.023,2.909-2.313,3.702-6.22.041-.202.173-.375.357-.468.065-.033.654-.317,1.437-.213.707.094,1.712.525,2.48,2.045.067.134.088.285.06.432-.06.316-1.561,7.794-8.672,11.503-.098.052-.205.077-.312.077" fill="#000072"/></g><g><path d="M131.629,157.202c0,0,1.162,3.293.827,8.096l3.826,3.33c0,0,1-5.803-.703-10.624l-3.95-.802Z" fill="#0096f2"/></g><g><path d="M133.152,165.007l2.616,2.277c.178-1.852.329-5.483-.704-8.696l-2.485-.505c.322,1.337.75,3.796.573,6.924Zm3.131,4.296c-.161,0-.319-.057-.444-.166l-3.825-3.33c-.16-.139-.245-.345-.231-.556.319-4.591-.779-7.794-.79-7.826-.081-.229-.032-.485.128-.668s.406-.266.644-.218l3.949.802c.233.047.424.213.503.437c1.741,4.93.774,10.72.732,10.964-.042.241-.21.44-.44.522-.073.026-.15.039-.226.039" fill="#000072"/></g><g><path d="M157.848,157.202c0,0-1.161,3.293-.827,8.096l-3.826,3.33c0,0-1-5.803.703-10.624l3.95-.802Z" fill="#0096f2"/></g><g><path d="M154.413,158.59c-1.034,3.218-.883,6.846-.705,8.696l2.617-2.278c-.177-3.128.252-5.587.573-6.923l-2.485.505Zm-1.219,10.715c-.076,0-.152-.013-.226-.04-.23-.081-.398-.281-.439-.521-.042-.244-1.01-6.035.731-10.964.08-.224.27-.39.503-.437l3.95-.803c.238-.049.484.035.644.219.159.183.208.438.127.668-.017.05-1.108,3.248-.79,7.825.015.211-.071.418-.231.557l-3.825,3.33c-.125.108-.283.166-.444.166" fill="#000072"/></g><g><path d="M140.923,188.878c-.962,4.729-6.45,6.893-10.306,3.994-3.019-2.267-6.334-7.453-8.382-18.824-.195-1.089-.38-2.237-.551-3.444l1.303-1.236l8.643-8.199c0,0,8.514,13.185,9.457,23.293v.002c.148,1.565.113,3.057-.164,4.414Z" fill="#b11313"/></g><g><g><g opacity="0.300003"><g opacity="0.300003"><path d="M140.923,188.878c-.962,4.729-6.45,6.893-10.306,3.994-3.019-2.267-6.334-7.453-8.382-18.824-2.882-1.736-3.872-6.203-3.872-6.203-1.243-5.93.191-11.396.191-11.396-.273,7.218,2.591,10.661,3.772,11.767.329.308.559.705.66,1.144c0,.003.001.005.001.008c2.111,9.341,5.646,20.722,10.775,21.537c4.952.786,7.085-5.667,7.325-6.441.148,1.566.113,3.057-.164,4.414Z" opacity="0.300003" fill="#000072"/></g></g></g></g><g><path d="M132.37,160.538c.984,1.072,1.762,2.268,2.468,3.504.35.619.669,1.254.986,1.89.318.637.629,1.276.931,1.92c1.213,2.574,2.318,5.205,3.235,7.917.918,2.709,1.658,5.507,1.927,8.421.13,1.455.138,2.943-.109,4.433-.054.366-.132.758-.252,1.136-.109.381-.264.748-.432,1.108-.349.715-.815,1.373-1.371,1.943-1.123,1.128-2.607,1.888-4.183,2.112-.785.123-1.592.096-2.375-.043-.783-.148-1.538-.43-2.229-.817-.338-.199-.678-.419-.972-.661l-.44-.362c-.149-.119-.277-.256-.416-.384-.134-.132-.277-.257-.403-.394l-.377-.416c-.26-.27-.475-.571-.709-.86-.902-1.176-1.621-2.455-2.252-3.76-.642-1.303-1.133-2.659-1.608-4.013-.441-1.365-.843-2.74-1.173-4.128-.163-.695-.339-1.387-.472-2.087-.137-.698-.302-1.392-.401-2.097-.221-1.406-.325-2.831-.204-4.276.007-.082.079-.143.161-.136.057.005.103.041.124.091l.002.004c.281.672.493,1.349.677,2.031.18.682.367,1.359.509,2.045.135.688.294,1.368.443,2.051.142.686.325,1.359.496,2.036.345,1.352.758,2.682,1.206,3.996.48,1.299.974,2.596,1.601,3.817.615,1.225,1.316,2.401,2.139,3.46.213.258.41.532.643.767l.337.367c.113.121.238.227.356.342.122.11.235.232.364.332l.38.306c.252.206.51.365.779.524.543.297,1.128.509,1.733.619.605.101,1.228.12,1.836.018c1.222-.181,2.37-.788,3.233-1.662.43-.44.791-.946,1.064-1.499.129-.279.252-.563.337-.861.095-.295.156-.596.206-.928.219-1.296.221-2.654.103-4.007-.12-1.356-.361-2.713-.672-4.058-.31-1.346-.697-2.681-1.127-4.004-.864-2.646-1.919-5.241-3.085-7.785-.291-.637-.59-1.27-.896-1.9-.304-.631-.624-1.253-.921-1.888-.599-1.268-1.164-2.556-1.609-3.918l-.001-.004c-.043-.129.028-.267.156-.309.094-.031.194-.001.257.067Z" fill="#000072"/></g><g><path d="M124.126,182.598c-.182,0-.364-.073-.497-.218-.253-.274-.236-.701.038-.954.25-.232,6.243-5.685,15.417-6.371.371-.03.696.251.724.624.028.372-.251.696-.623.724-8.688.65-14.543,5.962-14.601,6.016-.13.119-.295.179-.458.179Z" fill="#000072"/></g><g><path d="M148.555,188.878c.962,4.729,6.45,6.893,10.307,3.994c3.018-2.267,6.333-7.453,8.381-18.824.195-1.089.38-2.237.552-3.444l-1.304-1.236-8.643-8.199c0,0-8.514,13.185-9.457,23.293v.002c-.148,1.565-.113,3.057.164,4.414Z" fill="#b11313"/></g><g><g><g opacity="0.300003"><g opacity="0.300003"><path d="M148.554,188.878c.963,4.729,6.451,6.893,10.307,3.994c3.019-2.267,6.334-7.453,8.382-18.824c2.882-1.736,3.872-6.203,3.872-6.203c1.243-5.93-.191-11.396-.191-11.396.273,7.218-2.591,10.661-3.772,11.767-.33.308-.56.705-.66,1.144c0,.003-.001.005-.002.008-2.11,9.341-5.645,20.722-10.774,21.537-4.952.786-7.086-5.667-7.325-6.441-.148,1.566-.113,3.057.163,4.414Z" opacity="0.300003" fill="#000072"/></g></g></g></g><g><path d="M157.519,160.784c-.445,1.362-1.009,2.65-1.609,3.918-.296.635-.617,1.257-.921,1.888-.305.63-.605,1.263-.896,1.9-1.166,2.544-2.221,5.139-3.084,7.785-.431,1.323-.818,2.658-1.127,4.004-.312,1.345-.553,2.702-.672,4.058-.118,1.353-.116,2.711.103,4.007.049.332.11.633.205.928.085.298.208.582.338.861.272.553.633,1.059,1.063,1.499.863.874,2.012,1.481,3.233,1.662.608.102,1.231.083,1.837-.018.604-.11,1.19-.322,1.733-.619.269-.159.526-.318.778-.524l.38-.306c.129-.1.242-.222.364-.332.118-.115.244-.221.356-.342l.337-.367c.233-.235.43-.509.643-.767.824-1.059,1.525-2.235,2.139-3.46.628-1.221,1.121-2.518,1.601-3.817.448-1.314.861-2.644,1.206-3.996.171-.677.354-1.35.496-2.036.149-.683.308-1.363.444-2.051.141-.686.328-1.363.509-2.045.183-.682.396-1.359.676-2.031l.002-.004c.032-.076.119-.112.194-.08.053.022.086.071.091.125.122,1.445.018,2.87-.203,4.276-.1.705-.264,1.399-.402,2.097-.133.7-.308,1.392-.472,2.087-.33,1.388-.732,2.763-1.173,4.128-.475,1.354-.965,2.71-1.607,4.013-.632,1.305-1.351,2.584-2.253,3.76-.233.289-.449.59-.709.86l-.377.416c-.126.137-.269.262-.403.394-.139.128-.267.265-.415.384l-.441.362c-.293.242-.633.462-.971.661-.691.387-1.447.668-2.229.817-.783.139-1.59.166-2.376.043-1.575-.224-3.059-.984-4.182-2.112-.556-.57-1.022-1.228-1.372-1.943-.168-.36-.322-.727-.431-1.108-.121-.378-.199-.77-.252-1.136-.247-1.49-.239-2.978-.11-4.433.27-2.914,1.009-5.712,1.927-8.421.918-2.712,2.022-5.343,3.235-7.917.303-.644.614-1.283.931-1.92.317-.636.637-1.271.987-1.89.705-1.236,1.483-2.432,2.467-3.504.092-.1.247-.106.347-.015.073.067.096.168.067.257l-.002.004Z" fill="#000072"/></g><g><path d="M165.352,182.598c-.164,0-.328-.06-.458-.18-.058-.053-5.914-5.366-14.601-6.015-.372-.028-.651-.353-.623-.725.027-.372.352-.653.724-.623c9.174.686,15.166,6.139,15.417,6.371.274.253.29.681.037.955-.133.144-.314.217-.496.217Z" fill="#000072"/></g><g><path d="M144.749,154.641c17.667,0,24.683-7.721,24.683-7.721s.294.665.437,1.61c.237,1.564-.427,3.133-1.691,4.084-2.78,2.089-9.859,6.07-23.439,6.07-13.579,0-20.658-3.981-23.438-6.07-1.265-.951-1.929-2.52-1.691-4.084.143-.945.437-1.61.437-1.61s7.015,7.721,24.683,7.721" fill="#751313"/></g><g><g><g opacity="0.300003"><g opacity="0.300003"><path d="M169.805,148.168c-.227.981-.796,1.873-1.627,2.497-2.78,2.089-9.859,6.07-23.438,6.07-13.58,0-20.658-3.981-23.438-6.07-.831-.624-1.4-1.516-1.627-2.497-.024.115-.046.236-.065.362-.237,1.565.427,3.134,1.692,4.084c2.78,2.09,9.858,6.071,23.438,6.071c13.579,0,20.658-3.981,23.438-6.071c1.265-.95,1.929-2.519,1.692-4.084-.019-.126-.041-.247-.065-.362Z" opacity="0.300003" fill="#000072"/></g></g></g></g><g><path d="M144.739,159.36c-13.562,0-20.76-3.888-23.844-6.205-1.479-1.112-2.228-2.923-1.954-4.726.155-1.023.474-1.752.488-1.782.092-.209.284-.357.509-.394.226-.037.454.044.608.213.068.074,7.071,7.499,24.183,7.499v1.352c-14.615,0-22.029-5.157-24.361-7.166-.034.148-.065.309-.091.48-.199,1.312.348,2.631,1.429,3.443c2.949,2.216,9.864,5.935,23.033,5.935c13.168,0,20.083-3.719,23.032-5.935c1.081-.812,1.628-2.131,1.429-3.443-.026-.171-.057-.332-.091-.48-2.332,2.009-9.746,7.166-24.361,7.166v-1.352c17.17,0,24.115-7.424,24.183-7.499.154-.169.382-.249.608-.213.225.037.417.185.509.394.014.03.333.759.488,1.782.274,1.803-.475,3.614-1.953,4.726-3.084,2.317-10.283,6.205-23.844,6.205Z" fill="#000072"/></g><g><path d="M120.061,152.634l10.894,24.806" fill="none" stroke="#000072" stroke-width="0.5" stroke-miterlimit="10"/></g><g><path d="M158.05,177.44l11.124-24.807" fill="none" stroke="#000072" stroke-width="0.5" stroke-miterlimit="10"/></g><g><path d="M143.939,162.765c-.005.059-.041.113-.065.172-.024.056-.045.118-.065.177-.053.156-.102.309-.098.511.18.024.406.006.568-.017.089.04.146.101.228.145-.016-.076.058-.09.121-.111-.028.032-.071.054-.056.116.037.017.043-.028.073-.033.041.032.094.031.138,0c.031.005.022.036.056.039.049-.043-.02-.09-.04-.122.06.021.129.037.122.105.065-.027.145-.093.211-.139.169.025.385.036.584.022-.007-.337-.126-.598-.243-.86.032-.003.032.026.04.039.121.179.228.383.317.599.013.032.034.075.048.117.013.037.039.101.033.122-.014.046-.124.061-.146.1-.068-.055-.262-.039-.447-.044-.052-.002-.122-.012-.154-.006-.071.014-.102.085-.138.122.1.005.179-.061.268-.066.056-.004.139.025.211.038.209.038.443.07.633.111.012-.446-.156-.818-.381-1.121.224.211.374.459.487.75.019.05.036.098.048.149.018.073.019.163.073.217-.067.05-.148.091-.219.139-.199-.082-.584-.199-.909-.178-.077.005-.146.032-.203.067.099.027.168.029.301.027.033,0,.08-.009.105-.005.028.005.074.045.114.072.234.16.444.278.722.405.087.04.136.081.236.028.016.527-.189.916-.439,1.271-.029.042-.047.09-.097.122.188-.303.333-.665.333-1.088c0-.044.012-.099,0-.138-.018-.056-.146-.115-.22-.161-.209-.133-.376-.226-.608-.35-.046-.025-.084-.057-.122-.067-.04-.01-.102-.012-.146-.016-.055-.006-.109-.008-.154-.012.089.066.232.148.357.211.023.014.046-.005.073-.005.03.619-.038,1.225-.292,1.676-.061.108-.129.214-.236.294.346-.427.372-1.161.301-1.804.073-.043.041-.079-.025-.133-.072-.058-.2-.143-.284-.172-.006.029.009.057.024.083.016.026.051.049.057.073.013.049-.017.158-.032.216-.05.192-.156.402-.252.544-.033-.003-.01-.045-.032-.055-.036.001-.014.042-.033.055-.112-.13-.207-.346-.259-.544-.019-.071-.048-.156-.033-.216.012-.049.088-.092.081-.15-.074.011-.143.062-.203.105-.059.043-.12.09-.162.139.005.024.04.028.049.05-.054.651-.052,1.383.308,1.804-.038-.004-.055-.036-.073-.056-.335-.366-.425-.931-.463-1.515-.008-.129-.016-.255.009-.383.006-.027.048.013.073-.006.128-.066.243-.14.365-.211-.106.012-.221.008-.317.034-.082.022-.173.084-.251.127-.239.133-.49.277-.69.428-.041.495.125.894.324,1.243-.288-.384-.555-.811-.527-1.393.11.071.277-.045.365-.089.246-.123.508-.281.698-.416.138.014.299.003.414-.017-.143-.125-.511-.062-.73-.016-.148.03-.285.074-.374.122-.084-.039-.149-.091-.227-.134.057-.098.07-.264.114-.377.107-.276.274-.52.478-.744-.005.043-.048.08-.073.117-.178.27-.295.606-.3.999.188-.029.412-.065.633-.106.072-.013.147-.04.203-.038.09.002.175.065.276.066-.024-.052-.07-.089-.122-.122-.167.013-.354-.007-.503.011-.015.002-.035.008-.057.017.002-.001-.048.022-.04.022-.034,0-.117-.08-.155-.089.078-.341.255-.614.423-.893Z" clip-rule="evenodd" fill="#000072" fill-rule="evenodd"/></g><g><g><path d="M144.739,159.36v9.584Z" clip-rule="evenodd" fill="#000072" fill-rule="evenodd"/><path d="M144.739,159.36v9.584" fill="none" stroke="#000072" stroke-width="0.5" stroke-miterlimit="10"/></g></g><g><path d="M141.749,159.295c0,0,.527,7.851-.244,9.242" fill="none" stroke="#000072" stroke-width="0.5" stroke-miterlimit="10"/></g><g><path d="M139.382,159.144c0,0,1.188,3.633-.528,8.54" fill="none" stroke="#000072" stroke-width="0.5" stroke-miterlimit="10"/></g><g><path d="M147.47,159.36c0,0-.551,6.957.246,9.326" fill="none" stroke="#000072" stroke-width="0.5" stroke-miterlimit="10"/></g><g><path d="M150.279,159.144c0,0-1.259,6.899.611,8.54" fill="none" stroke="#000072" stroke-width="0.5" stroke-miterlimit="10"/></g><g><path d="M136.921,160.523c0,0,1.186-1.132,2.743,0c0,0,.812-1.124,2.162.155c0,0,.737-1.4,2.904-.155c0,0,.914-1.17,2.555,0c0,0,1.29-1.299,2.8-.064c0,0,1.346-1.466,2.512-.157" fill="none" stroke="#000072" stroke-width="0.5" stroke-miterlimit="10"/></g><g><path d="M144.567,162.322c-.042-.03-.084-.058-.126-.085-1.476-.946-2.547.112-2.547.112-1.095-1.137-2.111,0-2.111,0-1.702-1.987-2.621,0-2.621,0" fill="none" stroke="#000072" stroke-width="0.5" stroke-miterlimit="10"/></g><g><path d="M144.525,162.343c0,0,1.345-1.079,2.761,0c0,0,1.375-1.336,2.579.06c0,0,1.787-1.376,2.454-.028" fill="none" stroke="#000072" stroke-width="0.5" stroke-miterlimit="10"/></g><g><path d="M137.162,165.666c0,0,1.092-1.8,2.242.152c0,0,2.061-1.424,2.499.565c0,0,1.707-.868,2.9.561c0,0,1.264-1.479,2.728-.351c0,0,.977-2.262,2.632-.517c0,0,1.019-1.886,2.156-.81" fill="none" stroke="#000072" stroke-width="0.5" stroke-miterlimit="10"/></g><g><path d="M137.051,166.742c0,0,1.422-1.443,2.044.202c0,0,2.048-.927,2.62.74c0,0,2.117-1.111,2.998.666c0,0,1.252-1.18,2.758-.378c0,0,1.384-2.083,2.986-.854c0,0,1.139-1.947,1.821-.735" fill="none" stroke="#000072" stroke-width="0.5" stroke-miterlimit="10"/></g><g><path d="M124.584,182.418c0,0,6.303-6.629,14.27-5.989l1.811,5.565c0,0-1.957,8.262-14.299,5.478l-1.782-5.054Z" fill="#000072"/></g><g><path d="M124.584,182.418c0,0,6.303-6.629,14.27-5.989l1.811,5.565c0,0-1.957,8.262-14.299,5.478l-1.782-5.054Z" fill="none" stroke="#000072" stroke-width="0.5" stroke-miterlimit="10"/></g><g><path d="M148.522,183.362l1.856-7.894l8.746,2.66l5.211,2.96v2.274l-1.223,4.111c0,0-8.757,2.884-14.59-4.111Z" fill="#000072"/></g><g><path d="M148.522,183.362l1.856-7.894l8.746,2.66l5.211,2.96v2.274l-1.223,4.111c0,0-8.757,2.884-14.59-4.111Z" fill="none" stroke="#000072" stroke-width="0.5" stroke-miterlimit="10"/></g><g><path d="M104.259,172.848l6.733,17.464" fill="none" stroke="#000072" stroke-width="0.5" stroke-miterlimit="10"/></g><g><path d="M102.512,175.053c0,0,1.163,8.084,6.242,15.128" fill="none" stroke="#000072" stroke-width="0.5" stroke-miterlimit="10"/></g><g><path d="M106.993,172.175c0,0,5.259,8.932,6.071,18.278" fill="none" stroke="#000072" stroke-width="0.5" stroke-miterlimit="10"/></g><g><path d="M110.367,172.848c0,0,3.19,6.36,4.988,17.464" fill="none" stroke="#000072" stroke-width="0.5" stroke-miterlimit="10"/></g><g><path d="M101.797,178.825c0,0,.014-1.789,1.285-1.096c0,0,.473-3.128,2.55-1.142c0,0,.079-3.176,2.983-1.271c0,0,.828-2.331,2.567-.264c0,0,.863-.477,1.418.599" fill="none" stroke="#000072" stroke-width="0.5" stroke-miterlimit="10"/></g><g><path d="M102.713,176.146c0,0,.446-2.313,2.221-1.547c0,0,.351-1.902,2.691-1.269c0,0,.345-1.244,3.122.346" fill="none" stroke="#000072" stroke-width="0.5" stroke-miterlimit="10"/></g><g><path d="M102.045,179.776c0,0,.098-1.792,1.453-.545c0,0,.428-3.104,2.796-1.104c0,0,.063-3.039,2.819-1.321c0,0,1.014-1.697,2.782-.219c0,0,.315-.883,1.197,0" fill="none" stroke="#000072" stroke-width="0.5" stroke-miterlimit="10"/></g><g><path d="M102.045,181.314c0,0,.55-1.723,2.055-.227c0,0,.922-2.814,2.892-.91c0,0,.794-3.757,3.212-1.176c0,0,.376-2.453,2.298-.639c0,0,.146-1.506,1.16-.296" fill="none" stroke="#000072" stroke-width="0.5" stroke-miterlimit="10"/></g><g><path d="M102.512,182.617c0,0,.512-1.42,2.004-.4c0,0,1.621-2.242,3.11-.636c0,0,1.597-2.413,3.121-.579c0,0,.793-2.264,2.36-.688c0,0,.581-.844,1.05-.114" fill="none" stroke="#000072" stroke-width="0.5" stroke-miterlimit="10"/></g><g><path d="M103.051,184.288c0,0,.902-1.547,2.054-.623c0,0,1.011-1.763,3.212-.294c0,0,1.047-2.387,3.202-.584c0,0,.78-2.031,2.144-.19c0,0,.005-1.97.96-1.017" fill="none" stroke="#000072" stroke-width="0.5" stroke-miterlimit="10"/></g><g><path d="M103.714,186.238v-.496c0,0,.604-1.81,2.05-.629c0,0,1.493-1.712,3.073-.392c0,0,1.633-2.137,3.11-.433c0,0,.889-1.869,2.21-.007" fill="none" stroke="#000072" stroke-width="0.5" stroke-miterlimit="10"/></g><g><path d="M104.839,186.844c0,0,.056-.962,1.489-.607c0,0,1.535-1.163,3.062-.079c0,0,1.078-1.911,2.906-.462c0,0,1.266-1.49,2.132-.228" fill="none" stroke="#000072" stroke-width="0.5" stroke-miterlimit="10"/></g><g><path d="M105.633,188.045c0,0,.554-.842,1.567-.244c0,0,1.314-1.276,2.742-.215c0,0,.993-1.505,2.663-.422c0,0,1.059-1.372,2.117-.32" fill="none" stroke="#000072" stroke-width="0.5" stroke-miterlimit="10"/></g><g><path d="M106.731,188.899c0,0,.174-.891,1.124-.039c0,0,1.109-.712,2.512.039c0,0,1.531-.959,2.494-.204c0,0,1.253-.941,2.086-.043" fill="none" stroke="#000072" stroke-width="0.5" stroke-miterlimit="10"/></g><g><path d="M108.335,189.523c0,0,.738-.775,2.412.153c0,0,.919-.561,1.761-.363.12.028.239.072.353.135" fill="none" stroke="#000072" stroke-width="0.5" stroke-miterlimit="10"/></g><g><path d="M112.987,189.681c0,0,.851-.743,2.297-.231" fill="none" stroke="#000072" stroke-width="0.5" stroke-miterlimit="10"/></g><g><path d="M114.624,181.319c-.254.578.731,9.666.731,9.666h12.295l-.261-.673-2.805-5.351-1.755-5.027c-3.978-.564-7.882-9.883-7.882-9.883l-2.769,2.946.683,1.601l1.297,2.997.466,3.724Z" fill="#000072"/></g><g><path d="M184.712,172.425l-6.019,17.887" fill="none" stroke="#000072" stroke-width="0.5" stroke-miterlimit="10"/></g><g><path d="M186.311,174.608c0,0-1.07,11.415-6.093,15.978" fill="none" stroke="#000072" stroke-width="0.5" stroke-miterlimit="10"/></g><g><path d="M182.394,172.316c0,0-4.076,9.793-6.012,18.105" fill="none" stroke="#000072" stroke-width="0.5" stroke-miterlimit="10"/></g><g><path d="M179.006,173.174c0,0-2.967,5.565-4.506,18.282" fill="none" stroke="#000072" stroke-width="0.5" stroke-miterlimit="10"/></g><g><path d="M187.312,177.625c0,0-.325-1.583-1.353-.518c0,0-.43-2.828-2.458-1.082c0,0-.573-2.41-2.353-.557c0,0-1.386-2.304-3.111,0c0,0-.357-.584-1.192.183" fill="none" stroke="#000072" stroke-width="0.5" stroke-miterlimit="10"/></g><g><path d="M187.416,179.226c0,0-.381-1.552-1.784-.4c0,0-.816-1.946-2.838-.698c0,0-.475-1.97-2.577-.687c0,0-.621-1.5-2.714-.434c0,0-.49-.949-1.367.084" fill="none" stroke="#000072" stroke-width="0.5" stroke-miterlimit="10"/></g><g><path d="M187.416,181.087c0,0-.801-1.672-2.17-.589c0,0-1.279-1.813-3.128-.365c0,0-.699-1.767-2.476-.561c0,0-.91-1.948-2.797-.571c0,0-.346-1.028-1.718-.176" fill="none" stroke="#000072" stroke-width="0.5" stroke-miterlimit="10"/></g><g><path d="M187.085,182.598c0,0-.472-1.653-2.341-.282c0,0-1.273-2.122-3.174-.551c0,0-.822-2.162-2.564-.396c0,0-.55-1.759-2.624-.423c0,0-.304-1.376-1.189-.195-.886,1.181-.235-.022-.235-.022" fill="none" stroke="#000072" stroke-width="0.5" stroke-miterlimit="10"/></g><g><path d="M186.583,184.238c0,0-.676-1.845-2.342-.396c0,0-1.043-1.507-3.184-.555c0,0-1.294-1.555-2.794-.001c0,0-1.022-1.58-2.364-.264c0,0-.523-2.593-1.784-.087" fill="none" stroke="#000072" stroke-width="0.5" stroke-miterlimit="10"/></g><g><path d="M185.561,185.518c0,0-.041-1.686-1.839-.33c0,0-1.185-1.654-3.27-.099c0,0-1.128-1.702-2.653.096c0,0-1.039-1.649-2.327-.052c0,0-.041-2.75-1.78-.594" fill="none" stroke="#000072" stroke-width="0.5" stroke-miterlimit="10"/></g><g><path d="M184.713,186.944c0,0-.268-.92-1.704-.209c0,0-1.56-1.172-3.101-.03c0,0-.89-1.252-2.519-.13c0,0-1.34-1.169-2.261-.049c0,0,.081-2.091-1.873-.485" fill="none" stroke="#000072" stroke-width="0.5" stroke-miterlimit="10"/></g><g><path d="M183.678,188.062c0,0-.221-1.039-1.413,0c0,0-1.355-.911-2.877.189c0,0-1.499-.95-2.463,0c0,0-1.033-1.401-2.126,0c0,0-.335-1.851-1.39-.325" fill="none" stroke="#000072" stroke-width="0.5" stroke-miterlimit="10"/></g><g><path d="M182.766,188.596c0,0-.494-.453-.99.203c0,0-1.98-.582-2.77.586c0,0-.851-.927-2.374,0c0,0-.744-1.369-1.86,0c0,0-.615-1.82-1.768,0" fill="none" stroke="#000072" stroke-width="0.5" stroke-miterlimit="10"/></g><g><path d="M167.056,179.788l3.951-3.81l3.108-5.274.385-1.17l2.609,2.891.205,1.437-1.415,1.606-.771,1.973-.329,2.347v1.26l-.027.841c0,0-1.35,6.364-.657,8.868l-12.035.299-.392-.743l1.965-3.82l2.158-5.067l1.245-1.638Z" fill="#000072"/></g><g><path d="M164.847,155.085c0,0-9.631,18.697-10.713,23.916" fill="none" stroke="#000072" stroke-width="0.5" stroke-miterlimit="10"/></g><g><path d="M161.774,156.52c0,0-9.415,18.852-8.582,20.447" fill="none" stroke="#000072" stroke-width="0.5" stroke-miterlimit="10"/></g><g><path d="M170.763,155.49c0,0-7.158,19.504-10.487,24.061" fill="none" stroke="#000072" stroke-width="0.5" stroke-miterlimit="10"/></g><g><path d="M157.847,159.361c0,0,2.179-2.306,2.717-.382c0,0,1.463-2.154,2.654-.678c0,0,2.838-2.286,3.293.271c0,0,2.58-2.033,2.795.789c0,0,.937-.266.914,2.105c0,0,.842,1.842.598,2.557" fill="none" stroke="#000072" stroke-width="0.5" stroke-miterlimit="10"/></g><g><path d="M161.436,157.201c0,0,1.705-1.541,2.679-.681c0,0,2.295-2.327,3.491-.391c0,0,2.27-.401,2.31,1.628c0,0,.919,1.153.847,1.602c0,0-1.052,7.07-3.063,11.271c0,0-2.668,9.155-5.384,9.888" fill="none" stroke="#000072" stroke-width="0.5" stroke-miterlimit="10"/></g><g><path d="M157.521,160.78c0,0,1.364-1.703,2.173,0c0,0,1.999-1.928,2.08,0c0,0,3.157-1.526,3.573.389c0,0,2.331-1.662,2.802,1.18c0,0,2.24-.839,1.53,2.052c0,0,1.243-.325,1.008,1.493" fill="none" stroke="#000072" stroke-width="0.5" stroke-miterlimit="10"/></g><g><path d="M156.293,162.908c0,0,1.981-1.851,2.231.328c0,0,1.919-1.869,2.024.493c0,0,3.428-1.76,3.35.672c0,0,2.394-.763,2.824,1.526c0,0,2.069-.69,2.284,1.241c0,0,1.526-.095,1.383,1.138" fill="none" stroke="#000072" stroke-width="0.5" stroke-miterlimit="10"/></g><g><path d="M155.24,165.266c0,0,1.527-2.551,2.455-.015c0,0,1.235-1.115,1.796.464c0,0,3.003-1.003,3.266,1.228c0,0,2.032-1.277,3.046.74c0,0,2.357-.389,2.7,1.002c0,0,1.075-.335,1.46.848" fill="none" stroke="#000072" stroke-width="0.5" stroke-miterlimit="10"/></g><g><path d="M154.638,166.744c0,0,1.413-.739,1.835.94c0,0,1.463-1.28,2.05.256c0,0,2.396-.917,3.165,1.005c0,0,2.595-.985,3.439.828c0,0,1.76-.468,2.72.727c0,0,1.168-.439,1.327.753" fill="none" stroke="#000072" stroke-width="0.5" stroke-miterlimit="10"/></g><g><path d="M153.626,168.716c0,0,1.959-1.456,1.956.986c0,0,1.701-1.204,1.939.299c0,0,2.649-.768,3.303,1.252c0,0,2.206-1.608,3.294.846c0,0,2.27-1.215,2.784.787" fill="none" stroke="#000072" stroke-width="0.5" stroke-miterlimit="10"/></g><g><path d="M152.904,171.054c0,0,1.513-1.633,2.019.199c0,0,1.393-1.18,1.908.495c0,0,2.437-.676,3.261,1.138c0,0,2.188-.939,3.253.927c0,0,1.892-1.206,2.869.63" fill="none" stroke="#000072" stroke-width="0.5" stroke-miterlimit="10"/></g><g><path d="M152.223,172.595c0,0,1.551-.96,2.039.291c0,0,1.359-.939,1.882.457c0,0,2.666-.549,3.079,1.1c0,0,2.433-.696,3.377.946c0,0,1.849-.654,2.919.645c0,0,.433-.26.432.933" fill="none" stroke="#000072" stroke-width="0.5" stroke-miterlimit="10"/></g><g><path d="M151.632,174.048c0,0,1.658-.85,1.994.24c0,0,1.779-.713,1.922.507c0,0,3.017-.683,3.196,1.097c0,0,2.671-.8,3.065,1.075c0,0,2.316-.952,2.828,1.161c0,0,.903-.428,1.165.873" fill="none" stroke="#000072" stroke-width="0.5" stroke-miterlimit="10"/></g><g><path d="M123.105,153.723c0,0,8.586,14.118,10.592,23.244" fill="none" stroke="#000072" stroke-width="0.5" stroke-miterlimit="10"/></g><g><path d="M128.03,156.449c0,0,6.414,11.754,8.544,19.533" fill="none" stroke="#000072" stroke-width="0.5" stroke-miterlimit="10"/></g><g><path d="M118.974,155.964c0,0,7.477,21.207,9.926,22.861" fill="none" stroke="#000072" stroke-width="0.5" stroke-miterlimit="10"/></g><g><path d="M118.676,159.923c0,0,6.047,18.898,7.851,19.865" fill="none" stroke="#000072" stroke-width="0.5" stroke-miterlimit="10"/></g><g><path d="M119.515,156.819c0,0,.167-2.218,1.973-.934c0,0,.72-1.589,2.767-.202c0,0,.543-.851,2.272-.158" fill="none" stroke="#000072" stroke-width="0.5" stroke-miterlimit="10"/></g><g><path d="M119.081,161.168c0,0,.162-1.561,1.437-.95c0,0,.394-2.163,2.588-.651c0,0,.407-2.276,2.829-.883c0,0,1.522-1.994,3.275,0c0,0,1.282-1.192,2.219,0" fill="none" stroke="#000072" stroke-width="0.5" stroke-miterlimit="10"/></g><g><path d="M118.676,159.295c0,0,.562-.95,1.238-.611c0,0,.728-2.065,2.301-1.145c0,0,.996-1.498,2.795-.526c0,0,1.873-.863,3.02-.328" fill="none" stroke="#000072" stroke-width="0.5" stroke-miterlimit="10"/></g><g><path d="M118.471,164.129c0,0,.216-1.051,1.443-.446c0,0,.169-1.588,1.574-.767c0,0,.361-2.181,2.863-.831c0,0,.252-2.544,2.908-.916c0,0,1.168-1.951,2.936-.544c0,0,.197-1.111,1.553-.166" fill="none" stroke="#000072" stroke-width="0.5" stroke-miterlimit="10"/></g><g><path d="M118.676,166.582c0,0,.559-1.738,1.988-.688c0,0,.295-1.854,1.764-.627c0,0,1.088-1.705,2.681-.866c0,0,1.434-2.312,3.292-.987c0,0,1.35-1.781,2.807-.729c0,0,.052-.679,1.431-.337" fill="none" stroke="#000072" stroke-width="0.5" stroke-miterlimit="10"/></g><g><path d="M119.089,168.306c0,0,.385-1.787,2.195-.622c0,0,.841-1.223,1.936-.399c0,0,.942-2.068,2.889-.879c0,0,1.307-1.882,3.406-.697c0,0,.959-1.572,2.806-.672c0,0-.156-.923,1.247-.335" fill="none" stroke="#000072" stroke-width="0.5" stroke-miterlimit="10"/></g><g><path d="M119.8,170.052c0,0,.422-1.569,1.883-.782c0,0,.871-1.641,2.193-.403c0,0,.583-2.087,3.058-.661c0,0,1.18-1.821,3.355-.93c0,0,.864-1.723,2.811-.669c0,0,.405-.855,1.388-.171" fill="none" stroke="#000072" stroke-width="0.5" stroke-miterlimit="10"/></g><g><path d="M119.914,171.609c0,0,.593-2.008,2.212-1.557c0,0,1.456-.784,2.189-.066c0,0,2.093-1.573,3.167-.453c0,0,2.162-1.709,3.473-.62c0,0,1.476-1.24,2.921-.377c0,0,.792-.873,1.77-.23" fill="none" stroke="#000072" stroke-width="0.5" stroke-miterlimit="10"/></g><g><path d="M136.574,170.703c0,0-1.505-1.99-1.855-.118c0,0-2.571-1.54-2.813.667c0,0-2.525-1.897-3.413.582c0,0-2.582-1.42-3.239.579c0,0-1.646-1.723-1.901.473c0,0-.859-.328-1.01.524" fill="none" stroke="#000072" stroke-width="0.5" stroke-miterlimit="10"/></g><g><path d="M137.254,172.413c0,0-1.393-1.537-1.763.206c0,0-2.047-1.347-2.912.474c0,0-2.207-1.115-3.065.954c0,0-2.361-1.316-2.987.953c0,0-1.622-.656-2.176.982c0,0-.834-.221-1.246.985" fill="none" stroke="#000072" stroke-width="0.5" stroke-miterlimit="10"/></g><g><path d="M137.577,173.732c0,0-1.05-1.899-1.541.465c0,0-1.304-.811-2.831.855c0,0-1.953-.668-3.025.624c0,0-1.547-.425-2.669.71-.062.062-.122.129-.181.201" fill="none" stroke="#000072" stroke-width="0.5" stroke-miterlimit="10"/></g><g><path d="M127.389,176.516c0,0-1.443-.131-2.192,1.214c0,0-1.041.044-1.521,1.271-.481,1.227-.226-.176-.226-.176" fill="none" stroke="#000072" stroke-width="0.5" stroke-miterlimit="10"/></g><g><path d="M144.61,103.842c16.569,0,29.315,17.25,29.315,31.655c0,14.404-23.362,20.225-29.315,20.509s-30.529-6.527-30.529-20.932c0-14.404,13.961-31.232,30.529-31.232Z" clip-rule="evenodd" fill="#ff850b" fill-rule="evenodd"/></g><g><path d="M144.611,104.542c-16.524,0-29.829,16.703-29.829,30.533c0,3.596,1.633,6.978,4.856,10.051c7.178,6.846,20.273,10.188,24.603,10.188.119,0,.231-.002.336-.007c3.138-.15,10.365-1.765,16.61-4.887c5.492-2.745,12.038-7.562,12.038-14.923c0-14.315-12.499-30.955-28.614-30.955Zm-.352,52.173c-4.645,0-18.031-3.368-25.587-10.575-3.511-3.348-5.291-7.071-5.291-11.065c0-7.21,3.454-15.246,9.238-21.494c6.141-6.635,14.157-10.44,21.992-10.44c7.883,0,15.484,3.79,21.401,10.67c5.393,6.271,8.613,14.378,8.613,21.686c0,6.393-4.43,11.987-12.812,16.177-6.428,3.212-13.909,4.877-17.169,5.032-.12.006-.249.009-.385.009" fill="#000072"/></g><g><g><g opacity="0.5"><g opacity="0.5"><path d="M144.61,103.843c10.183,0,18.921,6.517,24.145,14.884.054.27.106.542.152.815-4.769-6.992-12.204-11.603-20.439-12.847.528.199.834.436.834.691c0,.711-2.394,1.287-5.347,1.287-2.952,0-5.346-.576-5.346-1.287c0-.255.306-.492.834-.691-8.235,1.244-15.67,5.855-20.439,12.847l.027-.147c5.498-8.701,15.008-15.552,25.579-15.552Z" opacity="0.5" clip-rule="evenodd" fill="#fff" fill-rule="evenodd"/></g></g></g></g><g><path d="M173.138,139.923c-4.12,11.186-23.228,15.83-28.528,16.083-5.247.25-24.955-5.012-29.56-16.124.353-6.053,3.427-7.708,9.112-4.75c2.338,1.217,4.716,2.485,6.601,1.519c10.757-5.515,17.325-4.475,24.687,0c3.443,2.093,6.803-1.029,8.911-1.981c6.714-3.032,9.795-.911,8.777,5.253Z" clip-rule="evenodd" fill="#fff" fill-rule="evenodd"/></g><g><g><g opacity="0.300003"><g opacity="0.300003"><path d="M173.798,132.982c.083.846.127,1.686.127,2.516c0,.53-.035,1.048-.097,1.555l.007-.152c-.818,9.613-20.17,16.953-30.58,17.546-8.691.495-26.047-8.863-28.965-17.546.005.18.014.36.022.54-.148-.765-.231-1.553-.231-2.366c0-.647.03-1.299.085-1.955l.045-.14c6.784,9.757,17.913,15.575,29.794,15.575c11.88,0,23.009-5.818,29.793-15.573Z" opacity="0.300003" clip-rule="evenodd" fill="#000072" fill-rule="evenodd"/></g></g></g></g><g><path d="M133.891,128.379c-.927-.414-1.875-1.106-2.844-2.077-1.68.077-3.024,1.872-3.024,4.075c0,2.252,1.403,4.078,3.134,4.078c1.732,0,3.136-1.826,3.136-4.078c0-.726-.146-1.408-.402-1.998Z" clip-rule="evenodd" fill="#000072" fill-rule="evenodd"/></g><g><path d="M160.201,124.539c-1.131,1.503-2.243,2.665-3.335,3.486-1.607,1.208-3.347,1.42-3.54.089.865-.099,1.766-.501,2.703-1.205c2.309-1.736,3.031-2.854,4.172-2.37Z" fill="#000072"/></g><g><path d="M154.93,128.379c.927-.414,1.875-1.106,2.844-2.077c1.681.077,3.024,1.872,3.024,4.075c0,2.252-1.403,4.078-3.135,4.078-1.731,0-3.135-1.826-3.135-4.078c0-.726.146-1.408.402-1.998" clip-rule="evenodd" fill="#000072" fill-rule="evenodd"/></g><g><path d="M156.368,129.339c-.509,0-.921.439-.921.98c0,.542.412.981.921.981.508,0,.92-.439.92-.981c0-.541-.412-.98-.92-.98Z" clip-rule="evenodd" fill="#fff" fill-rule="evenodd"/></g><g><path d="M144.003,131.092c2.242,0,4.06,1.212,4.06,2.707c0,1.496-1.818,2.708-4.06,2.708s-4.059-1.212-4.059-2.708c0-1.495,1.817-2.707,4.059-2.707Z" clip-rule="evenodd" fill="#000072" fill-rule="evenodd"/></g><g><path d="M147.885,139.825c-1.429,0-2.811-.532-3.872-1.482-1.184,1.079-2.817,1.581-4.422,1.326-1.864-.296-3.445-1.574-4.126-3.336-.14-.36.04-.766.4-.906.361-.139.766.04.906.401.502,1.298,1.667,2.239,3.04,2.457c1.374.219,2.773-.315,3.652-1.393.132-.16.328-.255.535-.257.21,0,.406.088.541.246.917,1.075,2.302,1.646,3.711,1.527c1.408-.118,2.681-.912,3.406-2.125.198-.332.629-.441.96-.242.332.199.44.629.242.961-.956,1.599-2.634,2.647-4.49,2.802-.162.014-.323.021-.483.021Z" fill="#000072"/></g><g><path d="M144.006,137.335c1.46,1.388,2.894,1.979,4.303,1.771.349,9.149-8.923,8.777-8.607-.129c1.727.22,3.161-.327,4.304-1.642Z" clip-rule="evenodd" fill="#000072" fill-rule="evenodd"/></g><g><path d="M140.399,139.725c.069,2.331.896,4.164,2.272,4.979.91.539,1.937.546,2.82.02c1.318-.785,2.076-2.542,2.125-4.879-1.192-.038-2.389-.554-3.574-1.54-1.021.944-2.231,1.42-3.612,1.42-.01,0-.021,0-.031,0Zm3.711,6.787c-.735,0-1.475-.201-2.152-.602-1.994-1.181-3.071-3.717-2.956-6.958l.027-.766.76.096c1.496.19,2.7-.27,3.689-1.406l.48-.553.53.505c1.308,1.243,2.526,1.762,3.719,1.585l.772-.113.03.78c.122,3.218-.899,5.714-2.801,6.848-.653.389-1.374.584-2.098.584Z" fill="#000072"/></g><g><path d="M144.083,142.395c-1.246,0-2.417.597-3.15,1.605c1.686,2.402,4.675,2.441,6.285-.02-.733-.996-1.897-1.585-3.135-1.585Z" clip-rule="evenodd" fill="#f06" fill-rule="evenodd"/></g><g><path d="M141.84,144.017c.649.716,1.465,1.104,2.313,1.096.818-.014,1.574-.4,2.168-1.1-.592-.581-1.398-.917-2.238-.917-.844,0-1.651.337-2.243.921Zm2.269,2.497c-1.442,0-2.805-.766-3.749-2.111l-.288-.409.294-.405c.861-1.186,2.251-1.894,3.717-1.894c1.454,0,2.836.699,3.698,1.87l.288.392-.266.407c-.879,1.343-2.201,2.126-3.628,2.15-.022,0-.044,0-.066,0Z" fill="#000072"/></g><g><path d="M170.515,120.839c-4.497-7.434-9.889-12.467-16.176-15.098c12.332-17.2859,17.724-12.2532,16.176,15.098Z" clip-rule="evenodd" fill="#ff850b" fill-rule="evenodd"/></g><g><path d="M155.414,105.447c5.519,2.519,10.391,6.936,14.513,13.155.752-16.853-1.533-21.3385-3.635-22.0781-1.604-.564-4.785.5576-10.878,8.9231Zm15.672,17.689l-1.17-1.934c-4.398-7.27-9.73-12.255-15.847-14.815l-.81-.339.51-.714c5.641-7.9074,9.888-11.2226,12.988-10.1317c3.953,1.3912,5.37,9.5497,4.457,25.6767l-.128,2.257Z" fill="#000072"/></g><g><path d="M153.269,121.744c1.037-.425,2.083-.271,2.335.344.253.616-.384,1.46-1.421,1.886-1.037.425-2.082.271-2.335-.345-.252-.615.384-1.46,1.421-1.885Z" clip-rule="evenodd" fill="#fff" fill-rule="evenodd"/></g><g><path d="M135.198,121.703c-1.037-.426-2.083-.272-2.335.344s.384,1.46,1.421,1.885c1.037.426,2.082.272,2.335-.344.252-.616-.384-1.46-1.421-1.885Z" clip-rule="evenodd" fill="#fff" fill-rule="evenodd"/></g><g><path d="M131.619,129.339c-.508,0-.92.439-.92.98c0,.542.412.981.92.981s.92-.439.92-.981c0-.541-.412-.98-.92-.98Z" clip-rule="evenodd" fill="#fff" fill-rule="evenodd"/></g><g><path d="M117.964,121.193c4.497-7.434,9.889-12.467,16.176-15.098-12.332-17.2862-17.724-12.2532-16.176,15.098Z" clip-rule="evenodd" fill="#ff850b" fill-rule="evenodd"/></g><g><path d="M122.936,96.7554c-.282,0-.53.0456-.749.1227-2.102.7396-4.387,5.2249-3.635,22.0779c4.121-6.218,8.993-10.635,14.513-13.155-5.261-7.2231-8.351-9.0456-10.129-9.0456Zm-5.543,26.7356l-.128-2.258c-.913-16.127.503-24.2853,4.457-25.6766c3.098-1.0896,7.346,2.2238,12.988,10.1316l.51.714-.81.339c-6.118,2.561-11.449,7.545-15.847,14.815l-1.17,1.935Z" fill="#000072"/></g><g><g><g opacity="0.649994"><g opacity="0.649994"><path d="M132.596,106.801c.509-.252,1.024-.487,1.546-.705-7.643-10.7138-12.619-12.85-14.931-6.4175c2.462-4.5232,6.923-2.1494,13.384,7.1215l.001.001Z" opacity="0.649994" clip-rule="evenodd" fill="#fff" fill-rule="evenodd"/></g></g></g></g><g><path d="M121.332,116.154c2.192-2.712,4.676-5.06,7.453-7.042-6.225-12.1264-8.709-9.779-7.453,7.042Z" clip-rule="evenodd" fill="#000072" fill-rule="evenodd"/></g><g><path d="M122.934,102.193c-.031,0-.052.004-.064.007-.075.022-.74.296-1.025,3.384-.192,2.081-.169,5.036.067,8.799c1.81-2.048,3.812-3.887,5.974-5.484-3.275-6.263-4.634-6.706-4.952-6.706Zm-2.169,15.776l-.131-1.763c-.956-12.8.402-14.944,1.856-15.354c1.74-.491,3.81,1.884,6.918,7.94l.277.538-.493.352c-2.711,1.936-5.173,4.261-7.316,6.913l-1.111,1.374Z" fill="#000072"/></g><g><g><g opacity="0.300003"><g opacity="0.300003"><path d="M122.14,101.898c-2.272,1.699-3.739,6.297-4.402,13.793.04,1.721.115,3.556.225,5.504.336-.608.691-1.209,1.067-1.8l-.027.147c1.815-2.768,3.767-5.169,5.856-7.201-1.222,1.153-2.372,2.393-3.453,3.722-.021.026-.042.052-.064.078-.001.002-.003.005-.006.008-.001.002-.003.004-.005.006-.609-8.15-.339-12.902.809-14.257Zm44.197-.354c2.272,1.699,3.739,6.297,4.402,13.793-.04,1.721-.115,3.556-.225,5.504-.336-.608-.692-1.209-1.067-1.8l.026.147c-1.814-2.769-3.766-5.169-5.855-7.201c1.222,1.153,2.372,2.393,3.453,3.722.021.026.042.052.063.078.002.002.004.005.006.007.002.003.004.005.006.007.609-8.15.339-12.903-.809-14.257" opacity="0.300003" clip-rule="evenodd" fill="#000072" fill-rule="evenodd"/></g></g></g></g><g><g><g opacity="0.649994"><g opacity="0.649994"><path d="M155.886,106.446c-.509-.251-1.025-.486-1.546-.704c7.643-10.714,12.62-12.8504,14.931-6.4179-2.462-4.5233-6.923-2.1493-13.385,7.1219v0Z" opacity="0.649994" clip-rule="evenodd" fill="#fff" fill-rule="evenodd"/></g></g></g></g><g><path d="M167.146,115.8c-2.192-2.712-4.676-5.06-7.453-7.042c6.225-12.1267,8.71-9.779,7.453,7.042Z" clip-rule="evenodd" fill="#000072" fill-rule="evenodd"/></g><g><path d="M160.592,108.545c2.163,1.598,4.166,3.436,5.975,5.484.236-3.763.258-6.718.067-8.799-.285-3.088-.95-3.362-1.025-3.383-.139-.039-1.426-.168-5.017,6.698Zm7.121,9.071l-1.111-1.375c-2.142-2.651-4.603-4.977-7.315-6.913l-.493-.352.276-.538c3.109-6.055,5.177-8.431,6.918-7.94c1.455.41,2.813,2.554,1.857,15.355l-.132,1.763Z" fill="#000072"/></g><g><path d="M122.936,96.7555c-.282,0-.53.0455-.749.1227-2.102.7396-4.388,5.2248-3.636,22.0778c4.122-6.218,8.994-10.635,14.514-13.155-5.261-7.223-8.351-9.0455-10.129-9.0455Zm-5.544,26.7355l-.127-2.258c-.913-16.127.503-24.2854,4.457-25.6765c3.098-1.0896,7.346,2.2237,12.988,10.1315l.509.714-.809.339c-6.118,2.561-11.449,7.545-15.847,14.815l-1.171,1.935Z" fill="#000072"/></g><g><path d="M144.611,104.542c-16.524,0-29.829,16.703-29.829,30.533c0,3.596,1.633,6.978,4.856,10.051c7.178,6.846,20.273,10.188,24.603,10.188.119,0,.231-.002.336-.007c3.138-.15,10.365-1.765,16.61-4.887c5.492-2.745,12.038-7.562,12.038-14.923c0-14.315-12.499-30.955-28.614-30.955Zm-.352,52.173c-4.645,0-18.031-3.368-25.587-10.575-3.511-3.348-5.291-7.071-5.291-11.065c0-7.21,3.454-15.246,9.238-21.494c6.141-6.635,14.157-10.44,21.992-10.44c7.883,0,15.484,3.79,21.401,10.67c5.393,6.271,8.613,14.378,8.613,21.686c0,6.393-4.43,11.987-12.812,16.177-6.428,3.212-13.909,4.877-17.169,5.032-.12.006-.249.009-.385.009" fill="#000072"/></g><g><g><g opacity="0.559998"><g opacity="0.559998"><path d="M145.325,132.178c.612.161,1.065.456,1.012.658-.053.201-.593.234-1.205.073-.612-.162-1.065-.456-1.012-.658s.593-.235,1.205-.073Z" opacity="0.559998" clip-rule="evenodd" fill="#fff" fill-rule="evenodd"/></g></g></g></g><g><path d="M129.129,124.539c1.131,1.503,2.243,2.665,3.335,3.486c1.608,1.208,3.348,1.42,3.54.089-.864-.099-1.765-.501-2.703-1.205-2.309-1.736-3.031-2.854-4.172-2.37Z" fill="#000072"/></g><g><path d="M155.414,105.447c5.519,2.519,10.391,6.936,14.513,13.155.752-16.853-1.533-21.3385-3.635-22.0781-1.604-.564-4.785.5576-10.878,8.9231Zm15.672,17.689l-1.17-1.934c-4.398-7.27-9.73-12.255-15.847-14.815l-.81-.339.51-.714c5.641-7.9074,9.888-11.2226,12.988-10.1317c3.953,1.3912,5.37,9.5497,4.457,25.6767l-.128,2.257Z" fill="#000072"/></g></g></g></g><g><circle id="eNC6SFwR3dJ338" r="83" transform="matrix(-.866025-.5 0.5-.866025 144.886084 144.886034)" fill="none" stroke="#e11d2e" stroke-width="4" stroke-dasharray="0,107,171,0"/><circle id="eNC6SFwR3dJ339" r="106" transform="translate(144.5 144.5)" fill="none" stroke="#e11d2e" stroke-width="3" stroke-dasharray="0,67,179,205"/><circle id="eNC6SFwR3dJ340" r="124" transform="matrix(.173648-.984808 0.984808 0.173648 144.99902 144.999811)" fill="none" stroke="#e11d2e" stroke-width="2" stroke-dasharray="146,136"/></g><g opacity="0.3"><path d="M21.2589,336.897c-1.536,0-3.072-.168-4.608-.504s-2.868-.828-3.996-1.476c-.672-.36-1.092-.84-1.26-1.44-.168-.624-.132-1.224.108-1.8s.624-.984,1.152-1.224s1.164-.18,1.908.18c.96.552,2.028.96,3.204,1.224s2.34.396,3.492.396c1.728,0,2.964-.264,3.708-.792.768-.552,1.152-1.236,1.152-2.052c0-.696-.264-1.248-.792-1.656s-1.452-.756-2.772-1.044l-4.068-.864c-4.536-.96-6.804-3.312-6.804-7.056c0-1.608.432-3.012,1.296-4.212.864-1.224,2.064-2.172,3.6-2.844c1.56-.672,3.36-1.008,5.4-1.008c1.344,0,2.664.168,3.96.504c1.296.312,2.436.78,3.42,1.404.6.36.972.828,1.116,1.404s.096,1.128-.144,1.656c-.216.528-.6.9-1.152,1.116-.528.216-1.188.132-1.98-.252-.792-.408-1.632-.708-2.52-.9s-1.8-.288-2.736-.288c-1.512,0-2.688.3-3.528.9-.816.576-1.224,1.332-1.224,2.268c0,.696.252,1.26.756,1.692s1.38.78,2.628,1.044l4.068.864c4.656,1.008,6.984,3.288,6.984,6.84c0,1.584-.432,2.976-1.296,4.176-.84,1.176-2.04,2.1-3.6,2.772-1.536.648-3.36.972-5.472.972Zm16.2585,6.408c-1.824,0-2.736-.924-2.736-2.772v-19.26c0-1.824.888-2.736,2.664-2.736c1.8,0,2.7.912,2.7,2.736v.108c.504-.888,1.248-1.596,2.232-2.124s2.088-.792,3.312-.792c1.536,0,2.88.372,4.032,1.116c1.176.744,2.088,1.8,2.736,3.168s.972,3,.972,4.896-.324,3.54-.972,4.932c-.648,1.368-1.56,2.436-2.736,3.204-1.152.744-2.496,1.116-4.032,1.116-1.176,0-2.256-.252-3.24-.756-.96-.504-1.704-1.176-2.232-2.016v6.408c0,1.848-.9,2.772-2.7,2.772Zm6.552-10.476c1.152,0,2.088-.42,2.808-1.26s1.08-2.148,1.08-3.924c0-1.752-.36-3.036-1.08-3.852-.72-.84-1.656-1.26-2.808-1.26-1.176,0-2.124.42-2.844,1.26-.72.816-1.08,2.1-1.08,3.852c0,1.776.36,3.084,1.08,3.924s1.668,1.26,2.844,1.26ZM59.49,315.585c-1.008,0-1.788-.228-2.34-.684-.528-.48-.792-1.152-.792-2.016c0-.888.264-1.56.792-2.016.552-.48,1.332-.72,2.34-.72c2.064,0,3.096.912,3.096,2.736c0,1.8-1.032,2.7-3.096,2.7Zm0,21.204c-.888,0-1.572-.252-2.052-.756-.456-.528-.684-1.26-.684-2.196v-12.312c0-1.992.912-2.988,2.736-2.988.864,0,1.524.264,1.98.792.48.504.72,1.236.72,2.196v12.312c0,.936-.228,1.668-.684,2.196-.456.504-1.128.756-2.016.756Zm13.7728.108c-1.536,0-2.892-.372-4.068-1.116-1.152-.768-2.052-1.836-2.7-3.204-.648-1.392-.972-3.036-.972-4.932s.324-3.528.972-4.896s1.548-2.424,2.7-3.168c1.176-.744,2.532-1.116,4.068-1.116c1.176,0,2.256.252,3.24.756s1.728,1.176,2.232,2.016v-7.668c0-1.848.9-2.772,2.7-2.772c1.824,0,2.736.924,2.736,2.772v20.484c0,1.848-.9,2.772-2.7,2.772s-2.7-.924-2.7-2.772v-.108c-.48.912-1.224,1.632-2.232,2.16-.984.528-2.076.792-3.276.792Zm1.62-4.068c1.152,0,2.088-.42,2.808-1.26.744-.84,1.116-2.148,1.116-3.924c0-1.752-.372-3.036-1.116-3.852-.72-.84-1.656-1.26-2.808-1.26s-2.088.42-2.808,1.26c-.72.816-1.08,2.1-1.08,3.852c0,1.776.36,3.084,1.08,3.924s1.656,1.26,2.808,1.26Zm22.6567,4.068c-2.088,0-3.888-.372-5.4-1.116-1.488-.768-2.64-1.836-3.456-3.204-.792-1.392-1.188-3.024-1.188-4.896c0-1.824.384-3.42,1.152-4.788.792-1.392,1.86-2.472,3.204-3.24c1.368-.792,2.94-1.188,4.716-1.188c2.568,0,4.6075.816,6.1195,2.448c1.512,1.608,2.268,3.792,2.268,6.552c0,.912-.564,1.368-1.692,1.368h-10.5835c.192,1.392.696,2.412,1.512,3.06.84.624,1.992.936,3.456.936.576,0,1.224-.06,1.944-.18.7435-.144,1.4515-.384,2.1235-.72.696-.336,1.284-.396,1.764-.18.48.192.804.528.972,1.008.192.48.192.984,0,1.512-.168.504-.564.924-1.188,1.26-.84.456-1.776.792-2.808,1.008-1.0075.24-1.9795.36-2.9155.36Zm-.756-14.832c-1.152,0-2.088.348-2.808,1.044-.696.696-1.128,1.668-1.296,2.916h7.7755c-.144-2.64-1.3675-3.96-3.6715-3.96Zm14.1415,14.76c-1.872,0-2.808-.924-2.808-2.772v-12.78c0-1.824.888-2.736,2.664-2.736s2.664.912,2.664,2.736v.648c.864-2.136,2.652-3.288,5.364-3.456.6-.048,1.056.108,1.368.468.336.336.516.9.54,1.692.048.744-.108,1.332-.468,1.764-.336.432-.912.696-1.728.792l-.828.072c-2.688.264-4.032,1.632-4.032,4.104v6.696c0,1.848-.912,2.772-2.736,2.772Zm21.568.072c-1.536,0-3.072-.168-4.608-.504s-2.868-.828-3.996-1.476c-.672-.36-1.092-.84-1.26-1.44-.168-.624-.132-1.224.108-1.8s.624-.984,1.152-1.224s1.164-.18,1.908.18c.96.552,2.028.96,3.204,1.224s2.34.396,3.492.396c1.728,0,2.964-.264,3.708-.792.768-.552,1.152-1.236,1.152-2.052c0-.696-.264-1.248-.792-1.656s-1.452-.756-2.772-1.044l-4.068-.864c-4.536-.96-6.804-3.312-6.804-7.056c0-1.608.432-3.012,1.296-4.212.864-1.224,2.064-2.172,3.6-2.844c1.56-.672,3.36-1.008,5.4-1.008c1.344,0,2.664.168,3.96.504c1.296.312,2.436.78,3.42,1.404.6.36.972.828,1.116,1.404s.096,1.128-.144,1.656c-.216.528-.6.9-1.152,1.116-.528.216-1.188.132-1.98-.252-.792-.408-1.632-.708-2.52-.9s-1.8-.288-2.736-.288c-1.512,0-2.688.3-3.528.9-.816.576-1.224,1.332-1.224,2.268c0,.696.252,1.26.756,1.692s1.38.78,2.628,1.044l4.068.864c4.656,1.008,6.984,3.288,6.984,6.84c0,1.584-.432,2.976-1.296,4.176-.84,1.176-2.04,2.1-3.6,2.772-1.536.648-3.36.972-5.472.972Zm16.259-.072c-1.824,0-2.736-.924-2.736-2.772v-20.484c0-1.848.912-2.772,2.736-2.772c1.8,0,2.7.924,2.7,2.772v7.668c.624-.912,1.428-1.596,2.412-2.052.984-.48,2.076-.72,3.276-.72c4.152,0,6.228,2.472,6.228,7.416v8.172c0,1.848-.912,2.772-2.736,2.772-.864,0-1.536-.24-2.016-.72-.456-.48-.684-1.164-.684-2.052v-7.92c0-1.224-.228-2.1-.684-2.628-.456-.552-1.128-.828-2.016-.828-1.152,0-2.076.36-2.772,1.08-.672.72-1.008,1.68-1.008,2.88v7.416c0,1.848-.9,2.772-2.7,2.772Zm21.41-21.24c-1.008,0-1.788-.228-2.34-.684-.528-.48-.792-1.152-.792-2.016c0-.888.264-1.56.792-2.016.552-.48,1.332-.72,2.34-.72c2.064,0,3.096.912,3.096,2.736c0,1.8-1.032,2.7-3.096,2.7Zm0,21.204c-.888,0-1.572-.252-2.052-.756-.456-.528-.684-1.26-.684-2.196v-12.312c0-1.992.912-2.988,2.736-2.988.864,0,1.524.264,1.98.792.48.504.72,1.236.72,2.196v12.312c0,.936-.228,1.668-.684,2.196-.456.504-1.128.756-2.016.756Zm17.805.108c-1.224,0-2.328-.264-3.312-.792s-1.728-1.248-2.232-2.16v.108c0,1.848-.888,2.772-2.664,2.772-1.8,0-2.7-.924-2.7-2.772v-20.484c0-1.848.912-2.772,2.736-2.772c1.8,0,2.7.924,2.7,2.772v7.632c.528-.84,1.272-1.5,2.232-1.98.984-.504,2.064-.756,3.24-.756c1.536,0,2.88.372,4.032,1.116c1.176.744,2.088,1.8,2.736,3.168s.972,3,.972,4.896-.324,3.54-.972,4.932c-.648,1.368-1.56,2.436-2.736,3.204-1.152.744-2.496,1.116-4.032,1.116Zm-1.62-4.068c1.152,0,2.088-.42,2.808-1.26s1.08-2.148,1.08-3.924c0-1.752-.36-3.036-1.08-3.852-.72-.84-1.656-1.26-2.808-1.26-1.176,0-2.124.42-2.844,1.26-.72.816-1.08,2.1-1.08,3.852c0,1.776.36,3.084,1.08,3.924s1.668,1.26,2.844,1.26Zm18.66,4.068c-1.32,0-2.484-.252-3.492-.756s-1.812-1.188-2.412-2.052c-.576-.864-.864-1.836-.864-2.916c0-1.272.336-2.292,1.008-3.06s1.764-1.308,3.276-1.62c1.512-.336,3.516-.504,6.012-.504h1.296v-.612c0-1.056-.24-1.8-.72-2.232-.48-.456-1.296-.684-2.448-.684-.648,0-1.356.084-2.124.252-.768.144-1.596.396-2.484.756-.672.288-1.236.312-1.692.072-.456-.264-.756-.648-.9-1.152-.144-.528-.108-1.056.108-1.584.24-.528.696-.912,1.368-1.152c1.128-.432,2.184-.732,3.168-.9c1.008-.192,1.932-.288,2.772-.288c2.736,0,4.776.624,6.12,1.872c1.344,1.224,2.016,3.132,2.016,5.724v7.992c0,1.848-.84,2.772-2.52,2.772-1.704,0-2.556-.924-2.556-2.772v-.216c-.36.936-.972,1.68-1.836,2.232-.84.552-1.872.828-3.096.828Zm1.224-3.636c1.008,0,1.86-.348,2.556-1.044s1.044-1.596,1.044-2.7v-.72h-1.26c-1.848,0-3.156.168-3.924.504-.768.312-1.152.864-1.152,1.656c0,.672.228,1.224.684,1.656.48.432,1.164.648,2.052.648Z" fill="#fff"/><path d="M232.401,336.825c-.912,0-1.608-.252-2.088-.756s-.72-1.212-.72-2.124v-20.268c0-1.92.936-2.88,2.808-2.88c1.848,0,2.772.96,2.772,2.88v20.268c0,1.92-.924,2.88-2.772,2.88Zm10.148,0c-1.824,0-2.736-.924-2.736-2.772v-12.78c0-1.824.888-2.736,2.664-2.736s2.664.912,2.664,2.736v.144c.6-.96,1.404-1.692,2.412-2.196s2.136-.756,3.384-.756c2.088,0,3.648.612,4.68,1.836c1.032,1.2,1.548,3.06,1.548,5.58v8.172c0,1.848-.912,2.772-2.736,2.772-.864,0-1.536-.24-2.016-.72-.456-.48-.684-1.164-.684-2.052v-7.92c0-1.224-.228-2.1-.684-2.628-.456-.552-1.128-.828-2.016-.828-1.152,0-2.076.36-2.772,1.08-.672.72-1.008,1.68-1.008,2.88v7.416c0,1.848-.9,2.772-2.7,2.772Zm25.19.072c-2.256,0-3.924-.624-5.004-1.872-1.056-1.248-1.584-3.12-1.584-5.616v-8.136c0-1.824.9-2.736,2.7-2.736c1.824,0,2.736.912,2.736,2.736v8.28c0,2.088.9,3.132,2.7,3.132c1.032,0,1.872-.36,2.52-1.08.672-.744,1.008-1.716,1.008-2.916v-7.416c0-1.824.9-2.736,2.7-2.736c1.824,0,2.736.912,2.736,2.736v12.78c0,1.848-.876,2.772-2.628,2.772-.864,0-1.524-.24-1.98-.72s-.684-1.152-.684-2.016c-1.176,1.872-2.916,2.808-5.22,2.808Z" fill="#e11d2e"/></g></g><script><![CDATA[(function(s,i,u,o,c,w,d,t,n,x,e,p,a,b){w[o]=w[o]||{};w[o][s]=w[o][s]||[];w[o][s].push(i);e=d.createElementNS(n,t);e.async=true;e.setAttributeNS(x,'href',[u,s,'.','j','s','?','v','=',c].join(''));e.setAttributeNS(null,'src',[u,s,'.','j','s'].join(''));p=d.getElementsByTagName(t)[0];p.parentNode.insertBefore(e,p);})('5c7f360c',{"root":"eNC6SFwR3dJ1","animations":[{"elements":{"eNC6SFwR3dJ338":{"transform":{"data":{"o":{"x":143.15198,"y":144.1043,"type":"corner"},"t":{"x":-1.892645,"y":0.190051}},"keys":{"r":[{"t":0,"v":210.000012},{"t":4000,"v":570.000012}]}}},"eNC6SFwR3dJ339":{"transform":{"data":{"o":{"x":144.5,"y":144.5,"type":"corner"}},"keys":{"r":[{"t":0,"v":0},{"t":4000,"v":-360}]}}},"eNC6SFwR3dJ340":{"transform":{"data":{"o":{"x":144.0755,"y":143.721949,"type":"corner"},"t":{"x":-1.098081,"y":1.131388}},"keys":{"r":[{"t":0,"v":-80.000012},{"t":4000,"v":279.999988}]}}}},"s":"MHDA1M2M2NmRhZmMwYmXRhY2JmTmI0YmFiOTZRkODU3Zlc3YjdiN2I3ANzZkYWZiNEViZGIwYOWViZlFiNGJhYjk2ZDFg1N2M3NzZkYjRiZmIAwR2JkYWNiZmI0YmFiCOWJlNmQ4NTdiNzc2ZKGIxYjRiN2I3NmQ4NTAdjNzc2ZGFjYjdiZmIIwYmRiOWFjYmZEYjA2WZEU4NWIxYWNiN2JlYPjA3NzZkYmViYmIwYjQBhZjZkODU3Y05jOA|T"}],"options":"MPDAxMDg4MmY4MDgxNmVU3ZjgxMmY0NzJmNzkP3YzZlNzFPMmY4YQ|"},'https://cdn.svgator.com/ply/','__SVGATOR_PLAYER__','2022-03-14',window,document,'script','http://www.w3.org/2000/svg','http://www.w3.org/1999/xlink')]]></script></svg>